<svg width="721" height="720" viewBox="0 0 721 720" fill="none" xmlns="http://www.w3.org/2000/svg">
<path d="M0.999975 374.234C0.999975 374.032 0.999975 373.816 0.999975 373.614C1.71987 373.312 2.51176 373.11 3.13088 372.678C10.733 367.408 18.4071 362.268 26.7148 358.135C27.0603 357.963 27.3483 357.66 28.0538 357.113C21.6611 358.035 15.8443 359.59 9.88353 360.108C9.82594 359.863 9.78274 359.633 9.72515 359.388C19.1414 356.436 28.5433 353.47 37.9596 350.518C30.4439 351.44 22.9857 352.491 15.7291 349.237C21.0996 348.617 26.2684 347.336 31.2501 345.378C36.203 343.434 41.1416 341.49 46.0945 339.546C46.0225 339.287 45.9649 339.028 45.8929 338.783C39.3562 339.46 32.8339 340.136 26.2972 340.813C34.2881 335.039 43.3588 332.303 52.8759 330.417C49.1036 329.639 45.3746 329.006 41.6455 328.991C37.9164 328.963 34.1873 329.553 29.8823 329.927C32.5316 327.782 35.0512 326.544 37.7436 325.622C45.5329 322.987 53.567 322.728 61.5147 324.125C69.6928 325.55 77.7124 327.84 85.8329 329.625C90.6418 330.691 95.4939 331.511 100.346 332.39C100.908 332.49 101.541 332.231 102.146 332.145C102.16 331.9 102.175 331.641 102.189 331.396C91.3473 328.113 80.2753 325.766 69.1312 323.664C57.9728 321.562 46.7136 320.453 35.368 319.646C45.9505 315.615 56.9361 314.952 68.0082 315.917C79.109 316.882 89.5332 320.323 99.4102 325.723C99.8997 323.045 98.4455 322.281 96.7178 321.562C78.7059 314.031 60.0749 311.007 40.6376 313.772C39.6298 313.916 38.6075 313.988 37.5997 314.088C37.5709 313.829 37.5277 313.57 37.4989 313.311C41.1272 312.26 44.7123 311.021 48.3837 310.186C51.9976 309.365 55.5251 308.458 58.9519 307.004C63.2281 305.175 67.7634 304.311 72.414 303.966C80.8368 303.332 89.0148 304.398 97.0489 306.975C97.9848 307.278 98.9639 308.07 100.706 307.177C88.4965 302.987 76.6038 301.1 64.1927 302.339C69.7072 298.94 75.8551 297.731 82.1902 297.27C88.6549 296.795 95.0476 297.544 101.383 298.984C101.426 296.766 101.455 296.709 100.159 296.104C93.0031 292.734 85.5881 290.503 77.5685 290.935C76.8342 290.978 76.0999 290.935 75.3656 290.935C75.7543 290.2 76.1718 289.941 76.6182 289.754C81.4559 287.709 86.524 287.277 91.7217 287.45C95.7099 287.58 99.6981 287.479 103.874 287.479C104.651 285.65 105.4 283.908 106.235 281.964C104.421 281.662 102.909 281.402 101.397 281.143C102.722 280.409 104.018 280.034 105.328 279.919C107.545 279.732 108.884 278.666 109.546 276.103H102.074C102.074 275.902 102.045 275.7 102.045 275.513C103.442 275.023 104.824 274.548 106.595 273.929C105.486 273.166 104.694 272.604 103.874 272.057C100.749 269.984 97.9848 267.522 96.1994 264.181C93.651 259.415 90.4402 255.21 86.308 251.711C86.2072 251.625 86.2504 251.351 86.2072 251.063C87.0135 251.063 87.8198 250.991 88.6117 251.063C97.4521 251.97 106.307 251.884 115.046 250.358C120.388 249.422 125.744 248.198 130.855 246.427C135.189 244.929 139.249 242.597 143.295 240.365C146.276 238.723 148.867 236.477 150.408 233.309C151.214 231.639 150.883 230.775 149.069 230.415C147.903 230.185 146.607 230.228 145.426 230.415C140.603 231.236 136.787 234.029 132.929 236.794C129.099 239.544 125.269 242.381 121.122 244.584C109.474 250.761 97.1497 252.143 84.3643 248.659C83.1549 248.328 81.8015 247.636 81.0672 246.686C78.7923 243.792 76.575 240.797 74.6889 237.629C71.9676 233.064 70.3839 228.097 70.7438 222.668C70.8302 221.344 70.7438 220.019 70.7438 218.68C69.8655 218.032 69.0592 217.441 68.3681 216.937C68.3249 216.635 68.2818 216.534 68.2962 216.433C68.3825 215.929 68.4545 215.425 68.5697 214.922C69.8223 208.989 70.0239 203.042 67.8354 197.311C65.2726 190.616 65.5029 184.093 67.9218 177.469C68.3825 176.202 68.5841 174.82 68.9153 173.452C69.1888 173.409 69.5776 173.222 69.7791 173.337C73.7386 175.741 77.7988 175.252 81.3551 172.934C84.753 170.702 87.7046 167.764 90.6994 164.971C92.8015 163.013 94.6013 160.738 96.6314 158.707C98.1576 157.181 99.7845 155.784 102.189 155.741C102.808 155.741 103.47 155.179 104.032 154.776C110.972 149.852 118.646 148.081 127.098 148.959C130.639 149.319 134.253 149.031 137.838 149.06C138.429 149.06 139.12 148.959 139.595 149.233C141.236 150.154 142.978 150.068 144.706 149.866C147.557 149.521 150.422 149.161 153.23 148.541C160.155 147.03 167.052 145.532 174.64 147.519C173.675 146.31 173.085 145.489 172.394 144.74C164.993 136.763 157.708 128.642 150.105 120.852C140.977 111.493 131.23 102.81 119.337 96.935C118.919 96.7334 118.574 96.4166 117.926 95.9702C121.166 95.6823 124.031 95.6391 126.795 95.1207C133.188 93.9112 139.523 94.7031 145.844 95.3799C148.551 95.6679 151.157 96.8198 153.82 97.5686C154.598 97.7845 155.39 98.0293 156.181 98.1877C159.003 98.7349 161.84 99.1668 164.647 99.8004C169.053 100.808 173.373 102.277 177.807 102.983C183.322 103.875 188.649 105.272 193.789 107.418C197.1 108.8 200.398 110.197 203.652 111.579C204.199 109.808 204.429 107.994 205.279 106.539C207.208 103.299 207.928 99.6852 209.123 96.2006C210.764 91.3913 212.909 86.7404 214.853 82.0319C214.925 81.8447 215.069 81.6863 215.17 81.4991C219.115 75.2787 224.817 70.7718 230.648 65.6457C230.173 69.8214 232.404 72.3413 234.492 75.0771C236.537 77.7409 238.048 80.7936 239.776 83.7022C241.288 86.2508 242.728 88.8427 244.24 91.3913C244.974 92.6296 245.953 93.724 246.572 95.0055C249.365 100.823 252.072 106.698 254.808 112.544C255.168 113.321 255.571 114.084 256.147 115.251C256.334 114.459 256.449 114.185 256.449 113.926C256.42 107.922 257.514 102.104 259.228 96.359C259.53 95.3223 259.271 94.0984 259.271 93.2056C259.991 92.8744 260.639 92.5576 261.445 92.1833C260.768 94.8759 262.539 95.9846 264.497 97.3814C264.569 95.7111 264.613 94.3863 264.699 93.0616C264.785 91.7225 264.857 90.3978 265.016 89.0731C265.16 87.8923 264.901 86.6108 265.88 84.8685C266.528 88.9147 267.118 92.2409 267.593 95.5671C268.356 100.895 269.81 105.848 272.805 110.485C277.427 117.655 280.882 125.474 283.791 133.509C284.021 134.142 284.323 134.762 284.712 135.654C285.706 134.862 286.469 134.243 287.246 133.61C286.613 130.399 285.274 127.634 283.632 125.042C281.501 121.658 279.126 118.418 277.052 114.992C265.131 95.1639 264.67 75.0915 275.929 54.8319C276.563 53.7088 277.441 52.7152 278.204 51.6497C278.348 52.7872 278.032 53.6512 277.744 54.5007C274.907 62.9674 273.669 71.6501 274.029 80.5632C274.504 92.3273 277.6 103.4 282.84 113.94C284.741 117.785 286.181 121.874 287.693 125.906C288.24 127.346 288.398 128.915 288.772 130.658C290.615 128.325 290.716 126.28 289.564 123.861C287.721 119.974 286.138 115.956 284.539 111.953C280.652 102.205 277.412 92.2841 276.491 81.7295C275.728 72.9172 275.958 64.3065 280.465 56.3294C281.127 55.1631 281.818 54.0112 282.495 52.8448C281.545 59.4252 281.199 65.8041 281.573 72.3125C281.876 77.4962 285.13 80.9087 287.549 84.8829C287.592 84.0046 287.448 83.1982 287.246 82.4207C285.216 74.7315 285 66.9416 286.872 59.2524C288.283 53.4928 290.227 47.8483 292.228 42.2615C293.049 39.9864 294.589 37.9705 295.899 35.897C296.274 35.3067 296.922 34.9035 297.44 34.3995C293.74 44.1334 294.474 53.7808 296.965 63.5146C297.469 50.5554 300.204 38.4601 310.024 28.3231C309.894 29.2446 309.923 29.5614 309.808 29.8062C305.071 40.0296 303.818 50.9009 304.207 61.9595C304.553 72.0101 305.373 82.0463 306.007 92.0825C306.021 92.3993 306.28 92.6872 306.482 93.1048C309.17 89.4666 309.985 85.7181 308.93 81.8591C308.8 81.3695 308.642 80.8655 308.512 80.376C305.69 69.4614 303.991 58.4461 305.863 47.1716C307.144 39.4536 309.866 32.2829 314.919 26.2208C317.036 23.6866 318.951 21.0803 320.563 18.2005C322.089 15.4647 323.918 12.9448 326.279 10.8138C326.193 11.5625 325.919 12.1961 325.617 12.8008C319.498 25.1697 316.532 38.2873 316.676 52.0529C316.748 58.8205 317.396 65.5737 317.756 72.3413C317.828 73.5796 317.756 74.8323 317.756 76.4882C318.432 75.869 318.749 75.6243 319.008 75.3363C319.944 74.2563 320.866 73.1476 321.83 71.9957C318.404 61.5419 317.439 50.9297 319.195 40.0872C320.938 29.3022 324.767 19.41 331.534 10.6842C329.144 20.3316 327.215 30.0366 325.804 39.8568C324.148 51.3473 323.068 67.3304 324.148 69.7782C325.257 65.5737 325.89 61.5563 326.164 57.467C326.567 51.4193 326.884 45.3717 327.388 39.3384C327.949 32.6572 329.389 26.1632 332.298 20.058C334.04 16.415 336.228 13.0744 339.453 10.5402C339.943 10.1514 340.548 9.921 341.455 9.41704C337.222 18.3301 335.638 23.6434 335.868 27.8623C338.014 24.5505 340.029 21.1091 342.376 17.8981C345.788 13.204 348.812 10.5402 351.058 9.73382C348.798 14.8455 346.523 19.9572 344.262 25.0689C346.206 23.6434 347.617 21.9155 349.057 20.2164C350.511 18.4885 352.037 16.8038 353.419 15.0327C354.874 13.1752 356.299 11.2745 357.566 9.28744C358.732 7.45875 359.668 5.50047 360.719 3.59978L361.468 3.85897C360.993 6.53721 360.719 9.27304 359.999 11.8793C359.265 14.5287 358.084 17.0486 357.091 19.626C361.799 13.7224 366.018 7.55955 370.711 1.77109C370.884 1.88629 371.057 2.00148 371.23 2.11667C369.113 6.13403 366.997 10.137 364.895 14.1544C365.067 14.2839 365.24 14.4135 365.399 14.5431C366.896 13.2184 368.365 11.8649 369.876 10.5546C371.359 9.27304 372.842 8.02032 374.369 6.79639C375.967 5.51487 377.579 4.23335 379.249 3.03822C380.804 1.92948 382.201 0.532768 384.145 0C382.532 2.46225 380.761 4.72292 378.933 6.94038C377.162 9.07146 375.29 11.1305 373.533 13.276C371.791 15.3927 369.646 17.207 368.465 19.7556C374.613 15.0903 380.848 10.5834 385.7 4.49253C384.058 9.10025 381.28 12.8872 377.882 16.199C374.541 19.4532 371.071 22.5778 367.659 25.7601C378.27 18.4165 389.429 12.2969 402.099 9.22985C390.105 16.4006 378.544 24.1474 367.429 32.5852C368.926 32.1245 370.294 31.4477 371.633 30.7422C380.934 25.7745 391.099 24.4785 401.394 23.6866C408.146 23.1682 414.884 22.693 422.055 22.1603C420.716 22.7938 419.737 23.341 418.714 23.7298C414.971 25.1553 411.199 26.5088 407.469 27.9775C406.663 28.2943 405.67 28.7407 405.295 29.4174C403.625 32.4125 402.142 35.5227 400.501 38.7625C404.734 40.6344 409.154 42.6502 411.285 47.5028C410.795 47.6179 410.421 47.5171 410.104 47.3588C405.627 45.0837 400.832 44.0902 395.865 43.7158C395.159 43.6582 394.338 43.5286 393.748 43.8166C390.379 45.4869 387.082 47.2868 383.756 49.0291C386.463 50.5986 389.328 51.9377 391.819 53.7952C395.519 56.5454 398.946 59.67 402.502 62.6218C404.863 64.5801 407.239 66.5096 409.586 68.4391C411.199 67.1432 412.624 66.1352 413.877 64.9401C415.129 63.745 416.439 62.521 417.346 61.0667C419.261 58.0141 421.954 55.9262 424.805 53.8528C431.457 49.0291 439.433 47.1572 446.618 43.5862C446.402 46.0772 445.768 48.5395 446.085 50.8865C446.416 53.3776 447.813 55.7103 448.417 58.1869C449.195 61.4555 449.699 64.8105 450.217 68.1367C450.462 69.6486 450.318 71.2325 450.635 72.73C451.383 76.229 452.593 79.656 453.125 83.1838C454.349 91.5065 455.688 99.8148 455.731 108.267C455.746 113.35 455.976 118.418 456.106 123.689C458.323 123.185 460.281 124.049 462.067 122.666C467.394 118.562 473.369 115.567 479.618 113.148C485.406 110.917 490.762 107.965 496.06 104.768C499.545 102.666 503.317 100.909 507.118 99.4404C511.711 97.6693 516.448 97.0934 521.228 99.2101C522.596 99.8148 524.223 99.9444 525.749 100.074C528.816 100.333 531.911 100.333 534.978 100.636C537.094 100.852 539.254 101.197 541.256 101.874C543.732 102.709 546.18 103.141 548.786 103.242C551.017 103.328 553.422 103.487 555.394 104.408C560.866 106.957 566.322 109.649 571.477 112.788C575.782 115.423 579.237 119.354 584.637 121.457C583.096 122.133 582.218 122.681 581.253 122.925C578.791 123.573 577.106 125.071 575.969 127.274C575.595 128.008 575.12 128.685 574.731 129.405C572.082 134.474 568.64 138.865 564.177 142.523C562.205 144.135 560.29 145.993 558.922 148.11C556.33 152.098 553.609 155.899 550.153 159.197C549.578 159.744 549.29 160.608 548.872 161.314C549.059 161.458 549.261 161.616 549.448 161.76C550.197 161.141 550.931 160.522 551.68 159.902C555.783 156.49 560.275 153.927 565.761 153.596C572.384 153.207 578.805 154.748 585.961 155.554C584.795 156.173 584.205 156.519 583.586 156.807C574.904 160.939 568.669 167.548 564.12 175.9C563.4 177.21 563.371 178.276 563.932 179.629C564.825 181.803 565.459 184.079 566.236 186.296C566.409 186.786 566.726 187.218 567.172 188.038C568.194 181.861 568.799 176.087 570.872 169.924C571.059 171.019 571.103 171.407 571.189 171.796C571.29 172.228 571.419 172.66 571.549 173.092C571.894 172.991 572.024 172.991 572.067 172.934C572.312 172.617 572.571 172.3 572.773 171.94C576.819 164.885 582.664 159.686 589.575 155.554C591.116 154.632 592.642 154.186 594.514 154.33C596.544 154.474 598.617 154.2 600.647 153.927C605.24 153.308 609.819 152.53 614.426 153.711C617.752 154.56 621.035 155.496 623.871 157.872C623.396 158.189 623.18 158.419 622.906 158.506C611.993 162.019 602.418 167.937 593.549 175.065C589.028 178.693 585.069 182.855 582.088 187.851C581.426 188.945 580.908 190.126 580.317 191.278C580.476 191.379 580.648 191.48 580.807 191.581C582.923 189.032 585.025 186.483 587.142 183.935C587.329 184.05 587.516 184.165 587.703 184.28C585.4 188.801 583.096 193.337 580.807 197.859C580.936 197.959 581.08 198.075 581.21 198.175C583.053 196.707 584.896 195.252 586.753 193.784C586.868 193.928 586.984 194.072 587.113 194.201C585.788 195.799 584.464 197.412 583.024 199.154C585.112 199.745 586.436 198.823 587.358 197.628C588.855 195.699 590.309 193.668 591.404 191.48C592.915 188.456 594.125 185.274 595.392 182.149C597.609 176.677 601.079 172.214 605.816 168.686C611.719 164.28 618.386 161.342 625.225 158.765C626.765 158.189 628.104 158.65 629.242 159.6C631.214 161.242 633.043 163.056 634.986 164.712C637.952 167.232 640.904 169.78 644 172.142C647.095 174.489 650.709 174.431 654.337 173.841C655.014 173.726 655.691 173.567 656.439 173.409C659.189 179.226 661.176 185.086 659.276 191.365C657.274 197.988 657.39 204.497 659.391 211.207C657.75 212.186 657.75 213.64 657.966 215.382C658.369 218.636 658.426 221.905 657.534 225.159C656.094 230.415 653.257 234.907 650.191 239.285C649.874 239.731 649.298 240.091 648.765 240.278C638.442 243.835 628.104 244.339 617.651 240.71C612.05 238.766 607.098 235.757 602.159 232.575C599.337 230.761 596.241 229.306 593.103 228.097C591.461 227.463 589.446 227.492 587.646 227.665C585.141 227.91 584.435 229.45 585.817 231.495C586.782 232.92 588.006 234.231 589.33 235.311C592.613 238.003 596.429 239.789 600.431 241.214C609.747 244.555 619.393 245.808 629.227 245.505C634.137 245.361 639.047 244.872 643.985 244.526C643.899 244.742 643.87 245.088 643.683 245.275C640.731 248.227 638.643 251.74 636.858 255.469C634.785 259.804 631.373 262.842 627.269 265.174C626.304 265.722 625.311 266.182 623.799 266.96C628.752 269.422 631.157 273.828 634.295 277.587C636.181 279.847 638.557 281.705 640.731 283.735C641.278 284.239 641.854 284.714 642.776 285.506C641.638 285.578 641.048 285.607 640.458 285.664C633.806 286.24 627.111 286.485 620.516 287.45C609.948 289.005 599.999 292.504 590.871 298.163C587.905 300.006 585.155 302.123 582.966 304.844C585.4 306.414 587.732 307.911 590.252 309.538C591.663 308.487 593.189 307.465 594.586 306.27C596.616 304.542 598.502 302.641 600.518 300.884C612.598 290.402 626.405 285.261 642.574 287.32C645.209 287.652 647.513 288.285 649.197 290.618C650.565 292.533 652.35 294.146 653.79 296.003C657.447 300.712 660.082 305.866 660.341 311.972C660.399 313.397 660.615 314.808 660.759 316.234C661.709 316.795 662.573 317.299 663.293 317.731C663.394 318.048 663.466 318.149 663.451 318.235C662.112 326.558 663.826 334.348 667.555 341.792C667.857 342.397 668.361 342.973 668.908 343.405C674.091 347.595 677.1 353.139 678.497 359.503C679.419 363.693 679.721 368.013 680.297 372.203C682.097 365.234 682.226 358.179 679.649 351.109C684.357 353.83 685.782 358.467 687.28 363.175C688.259 357.199 688.417 351.166 691.383 345.738C692.334 354.737 694.421 363.621 692.981 372.779C696.84 365.177 700.8 357.775 705.983 351.065C704.946 356.94 703.895 362.801 702.758 369.208C706.746 365.551 710.446 362.412 715.716 362.282C709.395 365.378 705.58 370.835 701.951 376.494C699.95 379.604 697.949 382.7 695.962 385.825C695.76 386.156 695.688 386.559 695.544 386.934C702.023 381.836 707.898 376.091 716.033 373.787C710.158 377.776 705.378 382.916 700.44 387.898C707.307 383.751 713.743 378.985 720.942 375.4C716.047 381.16 710.619 386.343 705.033 391.484C709.179 389.9 713.326 388.316 717.487 386.732C717.573 386.934 717.66 387.135 717.746 387.351C711.756 390.677 705.767 394.018 699.777 397.344C704.629 396.379 709.381 394.997 714.838 396.048C711.872 397.344 709.294 398.294 706.876 399.562C704.341 400.901 701.937 402.499 699.504 404.04C697.258 405.451 695.055 406.92 692.838 408.374L693.111 408.921C697.949 407.424 702.801 405.94 707.639 404.443C700.008 412.29 690.606 416.524 680.038 418.511C683.536 419.101 686.977 419.764 690.419 419.735C693.197 419.72 695.962 418.856 699.072 418.309C698.05 419.274 697.258 420.023 696.365 420.858C697.675 421.506 698.827 422.068 700.411 422.859C699.432 423.911 698.784 424.789 697.963 425.451C692.161 430.073 685.581 433.097 678.339 434.681C676.942 434.984 675.546 435.257 674.163 435.545C678.972 436.265 683.536 434.825 688.461 433.961C688.101 434.58 688.043 434.796 687.899 434.912C687.496 435.228 687.078 435.531 686.646 435.804C680.138 440.009 672.896 441.665 665.28 441.866C657.49 442.068 649.946 440.484 642.617 437.979C639.32 436.855 636.095 435.516 632.827 434.264C630.725 433.472 629.242 434.076 628.291 436.15C627.24 435.761 626.204 435.415 624.98 437.057C636.743 438.943 648.017 441.06 659.391 442.471C667.367 443.45 675.416 442.874 683.162 440.268C683.479 440.167 683.853 440.268 684.818 440.268C674.509 447.885 663.307 449.253 651.53 448.461C660.025 451.787 668.62 453.213 677.619 450.909C674.581 453.702 670.924 454.912 667.065 455.661C664.445 456.165 661.824 456.669 659.218 457.216C653.113 458.483 646.98 458.742 640.846 457.576C638.082 457.057 635.375 456.323 632.496 455.646C634.065 459.088 636.455 460.758 640.069 461.363C645.367 462.241 650.637 462.903 656.007 462.486C656.771 462.428 657.534 462.486 659.002 462.486C655.648 464.531 652.581 465.222 649.471 465.639C646.447 466.042 643.38 466.215 640.069 466.503C642.085 468.49 644.216 468.591 646.39 468.317C650.651 467.799 654.899 467.223 659.737 466.59C654.395 469.959 648.88 471.298 642.977 472.709C643.784 473.933 644.331 474.884 644.993 475.747C646.49 477.706 648.045 479.621 649.572 481.55C652.134 484.805 654.165 488.361 655.432 492.306C656.166 494.567 656.742 496.885 656.065 499.261C655.072 502.789 655.072 506.346 655.504 509.945C655.878 513.128 655.95 516.267 654.971 519.391C654.553 520.716 654.424 522.257 654.611 523.639C655.158 527.656 654.006 531.285 652.869 535.058C650.551 542.703 645.425 548.837 642.315 556.023C642.085 555.936 641.955 555.936 641.897 555.864C641.696 555.634 641.451 555.418 641.35 555.144C640.242 551.761 637.564 550.249 634.454 549.14C629.947 547.513 625.916 545.108 622.532 541.681C619.264 538.369 614.988 536.785 610.956 534.784C612.05 538.6 613.317 542.171 614.052 545.857C614.786 549.529 614.34 553.229 612.713 557.175C612.281 556.555 612.108 556.311 611.935 556.051C606.147 547.254 598.603 540.198 590.137 534.078C585.616 530.81 580.749 528.117 575.264 526.864C573.305 526.418 571.203 526.404 569.173 526.476C567.575 526.533 566.654 527.728 566.25 529.24C565.862 530.738 566.063 532.206 567.359 533.142C568.511 533.963 569.792 534.784 571.131 535.115C574.213 535.893 577.337 536.613 580.476 536.929C587.343 537.635 593.794 539.248 599.294 543.755C604.348 547.902 608.451 552.869 612.266 558.125C613.073 559.234 613.317 560.357 612.742 561.581C611.647 563.899 610.467 566.174 609.387 568.492C607.875 571.747 606.32 574.972 604.981 578.298C603.8 581.221 604.362 584.159 605.614 586.966C605.989 587.802 606.45 588.593 606.896 589.457C602.044 593.864 596.659 596.7 589.949 596.455C588.625 596.412 587.257 596.455 585.961 596.686C581.311 597.564 576.646 598.471 573.824 602.978C573.291 603.828 572.442 604.505 571.693 605.196C567.129 609.371 561.672 611.92 555.841 613.806C555.351 613.965 554.847 614.094 554.372 614.267C553.911 614.426 553.479 614.642 553.033 614.829C560.347 614.584 567.287 613.173 573.781 608.176C572.931 611.387 571.534 613.374 569.634 614.93C567.748 616.485 565.646 617.809 563.155 619.58C569.677 618.717 575.566 617.32 581.627 618.673C573.003 622.071 564.753 626.478 555.25 627.198C563.774 629.069 572.283 630.697 580.288 634.124C574.4 634.656 568.511 635.175 562.133 635.751C566.135 638.688 570.267 640.978 571.808 645.83C569.216 644.016 567.014 642.129 564.508 640.79C557.612 637.075 549.851 635.722 542.451 633.245C549.462 638.328 557.05 642.691 561.643 650.38C559.627 649.027 557.799 647.443 555.855 646.017C553.955 644.635 551.939 643.382 549.923 642.144C547.936 640.92 545.906 639.768 543.905 638.587C549.506 644.203 555.538 649.199 560.88 654.959C553.998 651.806 547.591 647.889 541.068 643.886C543.66 647.414 546.237 650.927 548.829 654.455C548.642 654.599 548.454 654.743 548.282 654.887L533.365 639.638C536.951 645.672 539.47 650.582 538.88 653.706C536.259 650.798 533.653 647.644 530.774 644.779C527.851 641.87 524.669 639.235 521.588 636.485C521.43 636.615 521.257 636.744 521.098 636.874C523.791 641.136 526.469 645.384 529.161 649.646C519.299 644.117 512.575 635.895 508.039 625.772C508.471 629.084 509.263 632.295 509.522 635.535C509.796 639.048 512.272 641.539 513.597 645.009C512.244 644.246 511.308 643.728 510.228 643.109C510.098 644.361 509.998 645.355 509.882 646.363C509.292 645.787 508.975 645.182 508.86 644.52C508.428 641.913 507.219 639.811 505.376 637.853C501.2 633.389 498.119 628.191 495.844 622.503C493.685 617.089 492.691 611.474 492.533 605.685C492.49 604.332 492.562 602.993 490.647 602.546C491.582 619.379 497.414 634.152 508.385 646.939C500.308 641.971 494.808 634.858 490.503 626.622C491.021 628.825 491.784 630.913 492.691 632.928C493.613 634.944 494.678 636.903 495.686 638.89C494.001 638.112 492.749 637.061 491.611 635.909C490.459 634.757 489.394 633.504 488.285 632.28C487.997 633.562 488.141 634.556 488.257 635.563C488.3 635.923 488.458 636.399 488.285 636.658C486.687 639.192 487.119 642.014 487.119 644.75C487.119 647.313 487.81 649.919 487.493 652.425C486.788 657.81 487.004 663.282 486.27 668.595C485.463 674.456 483.016 680.014 479.963 685.183C478.063 688.394 476.191 691.634 474.276 694.902C474.348 694.931 474.219 694.931 474.175 694.859C473.988 694.629 473.729 694.398 473.657 694.125C472.577 690.093 469.482 687.976 466.112 686.076C462.038 683.786 458.64 680.705 455.544 677.206C453.514 674.916 451.11 672.958 448.792 670.957C446.301 668.825 443.565 666.954 441.175 664.722C434.12 658.113 427.54 651.043 421.68 643.339C421.234 642.749 420.6 642.302 419.895 641.64C419.333 642.907 418.916 643.829 418.527 644.765C418.124 645.729 417.75 646.694 417.102 648.307C415.158 634.685 409.226 623.771 400.904 613.806C399.695 614.656 398.744 615.333 397.506 616.197C398.168 616.715 398.6 617.003 398.975 617.349C407.297 625.009 412.034 634.628 414.179 645.6C414.769 648.652 414.784 651.734 413.387 654.657C411.184 659.221 408.693 663.599 404.734 666.882C403.337 668.034 402.632 669.257 402.848 671.072C403.236 674.312 401.998 677.076 400.27 679.726C397.06 684.665 392.884 688.509 387.499 690.986C386.924 691.245 386.304 691.403 385.657 691.634C385.599 691.144 385.541 690.943 385.57 690.741C387.744 676.961 385.081 664.189 377.234 652.626C375.751 650.438 373.807 648.537 371.906 646.694C371.014 645.83 369.689 645.412 368.494 644.75C367.4 648.508 367.357 648.537 368.293 651.215C368.94 653.044 369.588 654.916 370.524 656.615C373.116 661.396 375.808 666.118 378.544 670.813C381.15 675.262 383.54 679.783 384.562 684.895C385.757 690.885 384.605 696.328 380.56 701.022C379.494 702.26 378.342 703.455 377.133 704.55C374.772 706.681 372.31 708.711 369.934 710.842C367.702 712.844 365.73 715.061 364.52 717.869C364.261 718.459 363.916 718.992 363.368 720C362.433 714.744 359.351 711.476 355.896 708.466C355.118 707.79 354.384 707.041 353.535 706.494C348.74 703.398 347.228 698.891 347.833 693.462C347.948 692.44 347.963 691.403 348.179 690.41C349.374 685.111 350.626 679.826 351.836 674.528C352.426 671.936 353.016 669.329 353.434 666.694C353.592 665.686 353.261 664.607 353.146 663.498C350.54 663.584 348.999 664.751 348.078 666.55C347.199 668.264 346.393 670.107 346.033 671.979C344.536 679.682 344.104 687.458 345.241 695.248C345.659 698.157 346.336 701.022 346.969 704.363C344.104 703.34 341.483 702.563 338.978 701.483C332.211 698.545 328.727 692.67 329.087 685.284C329.303 680.705 330.555 676.399 332.125 672.152C335.35 663.44 340.015 655.463 344.968 647.644C345.673 646.521 346.364 645.369 346.912 644.16C347.444 642.965 347.415 641.654 346.278 640.805C345.069 639.898 343.888 640.517 342.923 641.338C342.002 642.129 341.095 643.022 340.389 644.016C339.266 645.6 338.172 647.241 337.279 648.969C330.181 662.677 326.711 677.148 328.209 692.656C328.266 693.304 328.209 693.952 328.209 694.658C317.972 692.483 310.758 683.844 310.182 673.275C309.707 664.592 311.968 656.557 316.618 649.286C318.994 645.585 321.801 642.144 324.609 638.731C327.085 635.707 329.807 632.9 332.398 629.991C333.046 629.257 334.069 628.623 333.392 627.37C335.897 627.558 336.271 625.239 337.654 623.943C336.631 621.452 335.667 619.062 334.673 616.657C332.614 617.752 332.24 619.264 332.571 621.164C332.945 623.238 333.19 625.354 333.478 627.442C332.168 625.729 330.858 624.03 329.49 622.23C328.928 622.964 328.41 623.598 327.935 624.26C320.592 634.527 315.15 645.772 310.873 657.594C309.866 660.373 309.318 663.339 308.771 666.248C308.325 668.61 308.195 671.029 307.907 673.635C307.504 673.289 307.216 673.16 307.087 672.929C304.437 668.149 301.198 663.8 297.685 659.624C295.194 656.673 293.869 653.116 293.38 649.243C292.66 643.584 293.855 638.242 295.943 633.044C297.109 630.135 297.094 627.198 296.274 624.102C295.309 625.311 294.546 626.578 293.999 627.946C293.193 629.948 292.761 632.108 291.782 634.008C290.443 636.586 289.896 639.163 290.385 642C290.399 642.115 290.169 642.259 290.011 642.461C289.435 641.957 288.873 641.438 288.24 640.877C286.296 643.065 284.799 645.513 281.761 647.428C282.855 645.11 283.676 643.497 284.41 641.827C285.95 638.371 285.936 638.371 285.533 636.355C285.029 637.363 284.683 638.199 284.223 638.962C282.524 641.77 281.142 644.865 278.982 647.256C275.67 650.913 272.647 654.758 269.638 658.66C268.788 659.754 267.737 660.69 266.772 661.698C266.571 661.007 266.729 660.632 266.931 660.301C274.979 646.78 278.406 632.093 278.046 616.441C277.974 613.36 278.118 610.279 278.176 607.197C278.176 606.463 278.248 605.728 278.305 604.447C276.851 606.045 275.829 607.168 274.72 608.392C278.924 628.09 274.648 645.931 261.647 661.655C267.55 644.981 270.905 627.788 272.618 610.207C271.941 611.143 271.495 612.15 271.308 613.216C270.242 619.163 269.148 625.124 268.227 631.1C267.291 637.09 266.24 643.037 263.878 648.667C262.151 652.77 259.962 656.586 256.593 659.61C255.585 660.517 254.404 661.237 253.296 662.043C255.945 657.076 258.191 652.209 259.041 646.204C248.329 659.264 247.249 660.33 244.196 660.964C246.558 656.759 249.135 652.756 251.165 647.817C248.775 650.121 246.802 651.935 244.931 653.836C243.131 655.665 241.302 657.493 239.69 659.48C238.077 661.453 236.709 663.627 234.881 666.205C235.025 660.503 237.386 656.226 239.373 651.806C235.169 656.658 230.965 661.525 226.775 666.378C226.573 666.234 226.372 666.104 226.184 665.96C228.229 662.691 230.273 659.437 232.304 656.169C226.386 660.2 220.612 664.131 214.536 667.587C214.392 667.4 214.234 667.213 214.09 667.026L229.654 651.359C226.602 652.799 223.838 654.542 221.246 656.514C218.597 658.53 216.091 660.762 213.529 662.893C214.076 661.381 214.868 660.013 215.847 658.76C216.797 657.551 217.862 656.428 218.971 655.348C220.137 654.196 221.375 653.102 222.628 652.05C223.809 651.057 225.061 650.164 226.256 649.185C227.408 648.249 228.762 647.515 229.626 646.233C220.324 651.547 210.764 655.967 200.081 657.565C210.145 652.295 220.137 646.939 229.611 640.675C228.531 640.747 227.595 641.078 226.645 641.424C222.211 643.094 217.675 644.563 212.909 644.721C203.032 645.053 193.141 645.125 183.264 645.312C183.235 645.11 183.192 644.909 183.163 644.707C184.2 644.333 185.222 643.901 186.288 643.598C189.34 642.72 192.436 641.928 195.488 641.035C196.251 640.819 197.216 640.531 197.604 639.955C199.332 637.363 200.887 634.656 202.5 631.992C195.833 627.889 194.61 626.694 193.717 623.223C194.178 623.425 194.538 623.526 194.854 623.713C198.512 625.93 202.514 627.183 206.718 627.788C207.683 627.932 208.777 627.889 209.67 627.558C212.535 626.492 215.343 625.254 218.525 623.929C212.593 621.236 208.273 616.701 203.896 612.237C203.32 612.669 202.903 612.971 202.514 613.288C196.985 617.853 190.866 621.049 183.48 620.905C181.22 620.862 180.183 622.1 179.42 623.828C178.671 623.828 178.052 623.886 177.447 623.828C170.551 623.123 163.985 624.059 157.664 627.126C150.465 630.625 143.151 628.767 135.851 627.14C137.622 622.446 137.032 618.126 133.893 614.498C131.417 611.647 128.509 609.155 125.658 606.679C123.34 604.663 120.705 602.993 118.387 600.977C117.192 599.926 115.939 598.558 115.522 597.103C115.09 595.62 114.197 594.641 113.405 593.475C111.864 591.185 110.281 588.896 109.014 586.448C106.494 581.581 106.206 576.239 106.033 570.868C105.932 567.614 105.429 564.36 105.112 561.106C105.069 560.717 104.881 560.256 105.011 559.925C106.408 556.397 105.069 553.042 104.248 549.716C103.47 546.534 102.261 543.452 101.426 540.284C100.044 535.115 98.7479 529.845 100.432 524.532C101.44 521.335 102.995 518.297 104.306 515.187C104.565 514.582 104.824 513.992 105.141 513.243C102.549 512.94 100.202 512.696 98.4743 510.536C101.714 506.389 106.22 503.091 106.364 497.303C105.198 495.935 103.902 496.194 102.419 496.655C96.9769 498.354 91.5345 498.369 86.7256 495.057C82.3486 492.033 77.6836 489.83 72.7883 487.785C67.0579 485.395 61.9898 481.666 59.9021 475.301C59.3982 473.76 58.5487 472.882 56.9649 472.68C56.2018 468.461 55.1364 464.387 52.1848 461.377C47.8366 456.928 46.9583 451.485 46.7568 445.711C49.8811 446.056 52.372 444.861 54.2005 442.399C55.1076 441.175 55.8707 439.807 56.4754 438.396C57.4257 436.236 58.1312 433.976 59.0526 431.801C59.5998 430.491 60.1901 429.137 61.0396 428.014C62.393 426.243 63.9336 424.602 65.4885 422.989C66.41 422.039 66.5396 421.175 66.0213 419.951C64.5671 416.553 63.1993 413.126 61.8315 409.699C59.499 403.867 57.5121 397.949 57.5265 391.541C57.5265 391.268 57.3537 391.009 57.2241 390.634C56.8785 390.807 56.5906 390.893 56.4034 391.081C53.5382 393.874 50.6586 396.653 47.8654 399.504C47.2607 400.123 46.7712 400.987 46.5264 401.822C44.8706 407.366 43.8628 412.996 44.6547 418.828C44.741 419.49 44.6547 420.181 44.6547 420.944C41.2135 418.511 40.3209 416.034 38.8955 405.134C38.0028 405.408 37.1677 405.753 36.2894 405.94C33.4818 406.516 30.6886 407.265 27.8522 407.51C26.2252 407.654 25.2606 408.187 24.2815 409.382C21.042 413.356 17.6872 417.258 14.3613 421.16C13.9726 421.621 13.4254 421.952 12.9503 422.341C16.233 414.105 19.8325 406.185 23.3456 398.223C28.4713 386.617 35.2384 376.192 44.9426 367.84C45.101 367.711 45.1442 367.437 45.2306 367.221C38.3483 371.656 31.7541 376.35 25.347 381.26C18.8823 386.228 12.5904 391.426 6.21204 396.523C6.44241 395.228 7.07592 394.248 7.78142 393.312C14.2893 384.759 21.8771 377.272 30.4582 370.792C33.5538 368.445 36.7358 366.213 39.8745 363.938C40.8104 363.449 41.7607 362.973 42.6965 362.484L42.3366 361.922C41.4583 362.527 40.58 363.146 39.7162 363.751C37.5565 364.903 35.3824 366.012 33.2515 367.221C27.3771 370.576 21.4883 373.946 14.9372 375.803C12.216 376.581 9.394 377.041 6.62959 377.646C6.5432 377.416 6.47121 377.185 6.38482 376.955C15.8587 373.946 23.7776 368.2 31.9412 362.844C30.919 362.973 29.9831 363.29 29.0616 363.665C23.1729 366.055 17.3273 368.531 11.3953 370.821C7.9686 372.146 4.42669 373.168 0.942383 374.334L0.999975 374.234ZM362.577 106.165C363.08 106.482 363.584 106.798 364.405 107.302C364.146 106.352 364.002 105.69 363.8 105.056C363.613 104.48 363.455 103.832 363.095 103.371C362.764 102.954 362.188 102.752 361.713 102.45C361.468 102.939 361.223 103.429 360.978 103.919C359.467 103.098 358.171 101.687 355.737 102.162C357.696 102.911 358.862 104.624 360.921 103.861C361.353 104.466 361.785 105.07 362.217 105.675C360.374 105.517 358.545 105.358 356.702 105.2C358.243 106.122 359.855 106.669 361.497 107.13C362.26 107.346 362.634 106.942 362.591 106.15L362.577 106.165ZM520.666 615.837H519.471C520.465 618.961 523.676 623.526 526.253 625.369C525.274 621.755 524.64 618.256 521.012 616.441C520.796 616.326 520.71 615.966 520.566 615.707C523.647 617.838 526.843 616.873 530.039 616.096C526.584 615.376 523.128 614.67 519.457 613.907C519.947 614.685 520.321 615.246 520.681 615.822L520.666 615.837ZM674.106 402.629C674.782 399.893 675.445 397.143 676.121 394.407C675.992 394.364 675.848 394.32 675.718 394.277C674.048 397.56 672.364 400.843 670.578 404.357H671.932C672.133 405.451 672.911 405.249 673.587 405.033C675.92 404.27 678.252 403.493 680.57 402.643C681.636 402.254 682.658 401.707 683.695 401.218C680.268 400.93 676.942 400.44 674.134 402.614L674.106 402.629ZM368.724 127.807C368.523 127.432 368.365 126.784 368.091 126.741C366.522 126.453 366.046 126.914 365.298 129.247C367.112 130.211 367.731 128.469 368.796 127.72C368.753 128.311 368.71 128.887 368.652 129.52C371.345 130.039 373.951 130.845 376.586 130.946C379.379 131.047 381.107 133.797 383.886 133.494C382.647 129.765 380.056 127.864 376.125 127.735C375.319 127.706 374.498 127.504 373.706 127.274C372.382 126.885 371.575 127.346 371.316 128.944C370.683 128.152 370.265 127.62 369.833 127.072C369.401 127.346 369.07 127.562 368.724 127.792V127.807ZM212.031 612.064C209.886 609.803 209.454 609.487 207.625 609.184C209.08 610.178 210.131 611.733 212.06 612.021C212.348 612.395 212.564 612.885 212.938 613.144C217.733 616.643 223.074 618.932 228.906 620.07C238.999 622.043 248.962 620.704 258.911 618.99C259.905 618.817 260.797 618.069 261.733 617.579C261.042 617.118 260.552 617.147 260.063 617.219C255.801 617.867 251.554 618.717 247.277 619.134C235.255 620.3 223.679 618.947 213.154 612.381C212.838 612.179 212.406 612.15 212.017 612.05L212.031 612.064ZM106.897 552.797C107.142 552.898 107.372 553.013 107.617 553.114C107.948 552.509 108.308 551.905 108.625 551.271C114.255 540.284 122.865 532.595 134.383 528.16C137.061 527.124 139.782 526.202 142.46 525.151C144.174 524.474 145.872 523.725 147.485 522.861C148.666 522.213 149.803 521.249 149.386 519.694C148.954 518.11 147.384 517.908 146.103 517.966C144.174 518.052 142.172 518.254 140.344 518.83C126.104 523.365 115.565 532.221 109.316 545.9C108.308 548.103 107.703 550.479 106.912 552.783L106.897 552.797ZM145.815 151.738C145.757 151.868 145.685 152.012 145.628 152.141C146.247 152.602 146.837 153.106 147.499 153.524C157.708 160.046 164.46 169.147 167.801 180.752C168.823 184.295 169.672 187.88 170.709 191.422C171.112 192.79 171.702 194.115 172.35 195.382C172.898 196.433 173.905 197.34 175.072 196.807C175.849 196.462 176.684 195.382 176.771 194.561C176.987 192.444 177.188 190.198 176.727 188.154C173.027 171.897 164.115 159.686 148.637 152.703C147.744 152.3 146.765 152.069 145.815 151.752V151.738ZM121.626 574.295C125.6 565.756 132.324 560.141 140.387 555.763C143.166 554.252 145.743 552.322 148.248 550.393C149.602 549.356 150.811 548.002 151.804 546.606C153.201 544.647 153.057 543.15 151.718 541.552C150.336 539.91 148.939 539.377 146.78 540.428C144.418 541.58 142.043 542.948 140.07 544.676C130.956 552.682 125.917 563.265 121.612 574.281L121.626 574.295ZM123.743 164.381C130.567 169.891 136.005 176.778 140.056 185.043C141.51 187.981 143.166 190.817 144.937 193.568C145.8 194.907 147.068 196.059 148.32 197.095C149.717 198.247 151.315 198.319 152.884 197.268C154.41 196.246 155.116 194.864 154.713 193.064C154.468 191.969 154.238 190.817 153.676 189.867C152.395 187.664 151.113 185.403 149.501 183.431C142.561 174.906 133.404 169.334 123.743 164.381ZM408.938 70.383C404.734 68.2807 400.861 66.4232 397.074 64.4361C394.799 63.241 392.625 61.8875 390.437 60.5484C381.697 55.2351 372.137 53.5072 362.073 54.0688C354.039 54.5151 346.235 56.3294 338.46 58.1869C337.135 58.5037 336.257 59.1949 335.494 60.6348C340.72 59.4396 345.486 58.2445 350.295 57.2942C360.273 55.3071 370.279 54.9327 380.2 57.6109C388.493 59.8428 395.85 63.745 401.552 70.3398C402.013 70.8725 402.329 71.5493 402.704 72.1685C393.028 67.0136 382.921 64.2058 372.209 63.3418C383.396 66.2072 393.403 71.3477 402.401 79.0801C404.734 75.9842 406.807 73.2196 408.938 70.383ZM275.224 147.706C275.728 147.116 276.174 146.684 276.505 146.194C276.837 145.719 277.081 145.158 277.355 144.668C270.098 132.774 266.412 119.887 265.059 106.266C264.742 103.055 262.755 100.535 261.2 97.2518C258.954 113.508 263.691 131.997 275.21 147.706H275.224ZM643.265 384.572C643.222 392.247 643.424 399.778 642.344 407.294C641.235 414.911 638.816 422.067 635.462 429.051C637.42 428.259 639.061 427.237 640.76 426.33C642.056 425.638 642.689 424.645 642.977 423.234C644.028 418.007 645.483 412.838 646.202 407.582C647.124 400.829 646.894 394.047 644.561 387.51C644.201 386.502 643.712 385.551 643.28 384.572H643.265ZM89.3172 342.066C89.0868 341.85 88.8421 341.634 88.6117 341.418C87.5463 342.296 86.1496 342.959 85.4729 344.067C81.1535 351.152 76.647 358.164 72.8459 365.522C68.4257 374.075 65.5461 383.334 66.2516 393.039C66.8708 401.577 68.6417 410.044 69.9663 418.914C71.2621 418.252 72.126 417.82 72.9467 417.402C71.9244 414.796 70.859 412.478 70.0815 410.044C66.4388 398.467 67.3315 386.962 70.9598 375.573C74.4873 364.514 80.4193 354.694 87.0423 345.248C87.791 344.183 88.5541 343.117 89.3028 342.051L89.3172 342.066ZM650.824 418.885L651.256 419.231C652.005 418.712 652.725 418.136 653.531 417.69C656.425 416.106 657.75 413.673 658.527 410.447C662.199 395.328 662.112 380.209 659.103 365.018C658.844 363.737 658.498 362.469 658.182 361.159C655.806 361.231 654.438 362.541 653.056 364.025C654.021 365.796 654.971 367.495 655.878 369.208C658.57 374.363 660.053 379.835 660.269 385.681C660.572 393.96 658.614 401.736 655.36 409.238C653.949 412.492 652.35 415.674 650.839 418.885H650.824ZM587.027 514.668C585.328 512.609 583.96 510.838 582.448 509.211C581.872 508.592 581.023 508.016 580.216 507.858C575.336 506.907 570.411 506.763 565.545 507.944C564.177 508.275 562.795 508.851 561.643 509.657C559.872 510.896 560.16 512.897 562.161 513.732C562.982 514.078 563.961 514.193 564.868 514.193C567.129 514.193 569.404 514.179 571.635 513.934C576.675 513.387 581.671 513.603 587.041 514.683L587.027 514.668ZM121.785 500.442C130.611 498.498 138.817 498.383 146.924 501.119C147.888 501.436 148.939 501.652 149.947 501.652C151.214 501.652 152.496 501.364 153.734 501.205C153.734 499.276 152.726 498.34 151.646 497.577C150.566 496.813 149.4 496.007 148.147 495.705C144.98 494.942 141.755 494.236 138.515 493.89C135.319 493.545 132.324 495.1 129.214 495.647C126.55 496.122 124.175 497.821 121.785 500.442ZM540.104 558.442C541.587 554.583 542.998 550.925 542.926 546.951C542.897 545.137 542.638 543.236 542.004 541.566C541.155 539.305 539.6 539.089 538.059 540.918C537.023 542.156 536.015 543.567 535.525 545.079C534.546 548.089 533.841 551.185 533.193 554.295C532.905 555.619 533.034 557.045 532.962 558.456H540.104V558.442ZM342.045 73.3492C343.902 75.5379 343.902 75.6387 346.552 75.5235C349.791 75.3651 352.973 75.9266 356.097 76.4306C368.811 78.4897 381.035 82.2911 393 86.9996C393.806 87.3164 394.655 87.5036 395.49 87.7627C395.303 87.0428 394.958 86.726 394.54 86.5388C391.113 84.9261 387.571 83.515 384.246 81.7151C374.397 76.3874 363.916 73.522 352.728 73.2916C349.287 73.2196 345.832 73.3348 342.045 73.3636V73.3492ZM185.409 601.063C185.654 600.199 185.942 599.35 186.115 598.471C187.08 593.576 186.892 588.665 185.726 583.871C184.92 580.516 183.71 577.233 182.371 574.05C181.651 572.322 180.543 570.407 178.21 570.58C176.857 570.681 176.151 573.114 176.9 576.052C177.548 578.6 178.542 581.092 179.679 583.482C182.328 589.054 184.646 594.699 185.395 601.078L185.409 601.063ZM90.7282 225.087C90.9874 225.246 91.2321 225.462 91.5057 225.548C100.26 228.212 108.942 227.794 117.494 224.684C118.703 224.238 119.87 223.431 120.82 222.539C122.101 221.329 121.842 220.134 120.23 219.414C119.51 219.097 118.617 218.838 117.854 218.953C115.234 219.342 112.512 219.558 110.05 220.451C103.773 222.74 97.5097 224.929 90.7138 225.102L90.7282 225.087ZM640.328 311.885C630.725 309.495 621.582 310.589 612.871 315.111C611.906 315.615 611.057 316.479 610.395 317.357C609.531 318.494 609.848 319.632 611.201 320.035C612.439 320.395 613.893 320.626 615.103 320.309C617.565 319.675 620.027 318.84 622.331 317.746C627.643 315.24 632.985 312.893 638.917 312.274C639.407 312.231 639.867 312.015 640.342 311.871L640.328 311.885ZM393.115 644.505C393.086 644.304 393.115 644.03 393.028 643.8C391.056 639.034 388.493 634.599 385.239 630.596C384.85 630.121 384.447 629.573 383.929 629.329C379.984 627.486 376.01 625.7 371.878 623.828C371.575 625.642 372.022 627.126 373.015 628.321C374.311 629.89 375.65 631.503 377.262 632.727C382.46 636.715 387.787 640.546 393.129 644.491L393.115 644.505ZM321.657 121.399C313.35 119.426 305.503 117.555 297.44 115.625C296.072 118.706 294.877 121.428 293.639 124.207C301.716 123.703 309.39 123.228 317.065 122.767C318.576 122.681 320.088 122.565 321.643 121.399H321.657ZM628.248 432.536C632.596 431.499 633.071 431.081 634.137 427.136C634.54 425.653 634.929 424.17 635.231 422.658C637.924 409.555 636.829 396.322 636.484 383.132C636.484 382.931 636.513 382.628 636.397 382.542C636.009 382.239 635.577 382.023 634.814 381.563C634.814 382.815 634.814 383.622 634.814 384.414C634.77 390.865 635.073 397.33 634.612 403.752C633.921 413.457 632.87 423.162 628.176 432.003C628.104 432.132 628.219 432.363 628.248 432.536ZM611.187 217.585C612.569 220.494 615.103 221.344 617.709 221.934C623.583 223.259 629.515 223.316 635.39 221.934C637.578 221.43 639.853 220.926 641.768 219.169C639.075 219.169 636.585 219.443 634.18 219.097C630.653 218.593 627.183 217.643 623.698 216.88C621.51 216.405 619.336 215.728 617.104 215.469C614.959 215.209 612.785 215.382 611.187 217.571V217.585ZM643.524 374.81C649.946 381.879 653.185 390.029 652.897 399.504C654.87 388.518 654.438 377.862 649.37 367.236C647.268 369.943 645.483 372.275 643.51 374.81H643.524ZM627.211 428.921C629.386 414.681 628.018 400.771 629.198 386.473C627.831 387.178 627.039 387.582 626.16 388.028C626.938 401.174 625.959 414.105 623.367 426.92C624.749 427.64 625.8 428.187 627.211 428.907V428.921ZM699.072 423.219C695.976 422.499 693.14 422.629 690.188 424.141C678.655 430.03 666.547 431.427 654.021 427.813C651.386 427.05 648.852 425.912 646.188 424.919C644.662 425.941 643.092 426.978 641.422 428.101C646.274 428.72 650.781 429.152 655.216 429.901C664.027 431.398 672.795 431.413 681.564 429.685C687.712 428.461 693.629 426.546 699.072 423.234V423.219ZM336.531 92.8456C336.574 92.644 336.603 92.4425 336.646 92.2409C333.781 90.9881 331.031 89.1738 328.036 88.5979C323.198 87.6763 318.216 87.7339 313.321 88.6699C312.5 88.8283 311.536 89.3178 311.046 89.9658C310.067 91.2473 309.376 92.7448 308.282 94.6311C317.972 92.7448 327.229 92.5144 336.531 92.86V92.8456ZM80.448 415.055C77.1941 403.824 76.6758 392.78 77.7988 381.606C74.6745 393.082 73.3066 404.645 75.2216 416.697C77.0213 416.135 78.5475 415.645 80.448 415.041V415.055ZM307.605 95.8119C306.237 98.3605 304.826 100.996 303.358 103.746C303.905 103.832 304.135 103.933 304.293 103.875C311.953 101.068 319.901 99.7716 328.036 99.5412C328.871 99.5124 329.706 99.0229 330.541 98.7493C324.235 97.3958 318.044 96.575 311.852 95.8263C310.542 95.6679 309.203 95.7975 307.605 95.7975V95.8119ZM111.231 460.801C110.022 460.888 109.604 460.844 109.23 460.96C106.609 461.723 104.781 463.595 103.47 465.798C99.6406 472.176 95.7387 478.483 89.418 482.832C94.1981 481.349 100.648 476.943 105.184 471.975C106.955 470.031 108.452 467.785 109.806 465.51C110.54 464.286 110.684 462.716 111.231 460.801ZM29.0904 403.593C33.0787 402.398 36.1311 399.907 39.2122 397.431C40.8392 396.12 40.7096 394.148 41.3575 392.477C42.0918 390.562 42.6101 388.561 43.5316 386.732C46.0513 381.707 48.7149 376.739 51.3497 371.771C51.8393 370.835 52.3864 369.943 52.9191 369.021C52.7319 368.92 52.5448 368.819 52.3576 368.719C44.0211 379.921 38.262 392.866 29.1048 403.608L29.0904 403.593ZM621.913 175.957C621.668 175.727 621.423 175.497 621.179 175.266C620.012 175.828 618.774 176.303 617.666 176.98C612.31 180.205 608.638 184.986 605.528 190.241C605.067 191.019 604.736 191.94 604.621 192.833C604.419 194.403 605.643 195.209 606.968 194.316C607.961 193.654 608.768 192.66 609.531 191.724C611.287 189.579 612.914 187.333 614.685 185.202C616.471 183.071 618.414 181.098 620.185 178.952C620.905 178.074 621.337 176.965 621.913 175.972V175.957ZM379.206 604.865C384.26 607.744 388.709 610.437 393.331 612.842C395.231 613.835 397.391 613.504 399.579 612.482C396.354 608.666 392.726 605.7 388.738 603.18C388.191 602.834 387.355 602.618 386.765 602.762C384.389 603.324 382.057 604.058 379.206 604.865ZM387.298 95.1639C388.954 99.1812 390.494 102.896 392.107 106.798C392.568 103.256 390.811 100.247 390.019 96.3446C391.171 97.6405 391.804 98.3605 392.712 99.3828C393.446 95.7974 394.108 92.6008 394.785 89.3034C389.458 88.7275 384.519 88.1803 379.192 87.6043C380.372 89.8218 381.452 91.3049 383.655 91.9529C386.016 92.6584 388.277 93.7384 390.581 94.6455C390.523 94.8183 390.48 94.9911 390.422 95.1639H387.298ZM83.2557 428.043C87.4887 429.785 90.4978 433.04 93.8238 435.905C95.2204 437.1 96.7034 438.223 98.244 439.231C99.079 439.778 100.101 440.268 101.066 440.311C101.843 440.354 102.952 439.894 103.37 439.289C103.773 438.698 103.802 437.46 103.456 436.812C102.952 435.876 102.031 435.084 101.124 434.451C99.6262 433.385 98.0424 432.392 96.4154 431.528C92.3264 429.339 87.8918 428.36 83.2413 428.043H83.2557ZM544.063 597.118C543.53 595.246 542.667 595.807 541.846 596.254C532.098 601.452 521.689 601.97 511.02 600.53C508.212 600.156 505.433 599.638 502.525 599.162C503.965 602.762 506.24 604.461 510.127 603.943C515.814 603.18 521.559 602.935 527.218 602.013C532.962 601.078 538.563 599.393 544.063 597.118ZM557.007 578.874C560.174 577.78 560.16 577.78 560.16 575.087C560.16 573.143 560.347 571.199 560.218 569.27C560.074 567.139 559.815 565.008 559.339 562.934C559.023 561.566 558.245 560.299 556.546 560.141C553.955 562.43 554.343 565.368 554.545 568.19C554.588 568.823 555.438 569.414 555.826 569.889C553.955 573.172 556.1 575.908 557.007 578.874ZM596.169 559.478C596.285 559.234 596.385 558.989 596.501 558.73C596.328 558.384 596.198 557.981 595.953 557.693C591.332 552.279 585.141 549.716 578.431 548.146C577.308 547.887 576.156 548.103 575.508 549.86C576.372 550.493 577.236 551.357 578.287 551.847C583.197 554.165 588.15 556.411 593.117 558.615C594.082 559.046 595.162 559.19 596.184 559.464L596.169 559.478ZM607.17 345.421C607.803 351.915 620.358 362.268 627.341 362.541C626.607 361.692 626.088 360.958 625.441 360.382C620.459 355.961 615.477 351.541 610.438 347.192C609.66 346.515 608.609 346.17 607.184 345.406L607.17 345.421ZM298.621 114.027C298.621 114.027 298.75 114.2 298.822 114.214C304.538 114.358 310.254 114.502 315.985 114.56C316.561 114.56 317.28 114.084 317.698 113.624C318.288 112.99 318.648 112.155 319.253 111.161C313.811 110.312 308.642 109.822 303.415 109.981C299.715 110.096 299.643 110.168 298.621 114.041V114.027ZM151.488 568.089C149.717 567.283 148.651 568.017 147.73 568.751C142.215 573.143 137.493 578.197 134.901 584.907C134.599 585.714 134.455 586.578 134.052 588.104C135.218 587.211 135.837 586.866 136.298 586.347C140.934 581.149 145.556 575.951 150.12 570.71C150.725 570.019 150.998 569.054 151.488 568.089ZM126.435 194.446C127.544 192.732 126.81 191.509 126.104 190.443C122.303 184.755 117.854 179.701 111.634 176.519C110.77 176.073 109.82 175.813 108.898 175.453C109.057 176.605 109.489 177.369 110.079 177.988C114.614 182.869 119.164 187.736 123.757 192.545C124.477 193.308 125.485 193.784 126.421 194.432L126.435 194.446ZM367.054 38.7049C367.774 38.9497 367.976 39.0793 368.149 39.0505C368.854 38.9497 369.56 38.8057 370.265 38.6761C376.629 37.4954 383.022 36.3002 389.501 36.8618C392.193 37.0922 394.31 36.545 396.325 34.9611C397.693 33.8812 399.104 32.8588 400.443 31.7501C400.904 31.3613 401.221 30.7854 401.466 30.4686C390.134 33.1756 378.817 35.897 367.054 38.7049ZM46.728 348.358C47.4191 348.286 48.1246 348.258 48.8013 348.114C56.5906 346.486 64.3943 345.637 72.27 347.566C72.7451 347.682 73.3642 347.782 73.7674 347.566C75.9127 346.53 78.0292 345.406 80.1457 344.312L79.8865 343.607C68.5553 342.959 57.4977 344.485 46.728 348.33V348.358ZM396.786 84.6957C398.01 83.0542 399.075 81.6143 400.227 80.0592C393.82 77.2514 387.6 74.7747 380.963 73.2916C386.218 77.0786 391.459 80.8655 396.786 84.6957ZM99.6262 363.074C102.736 355.644 105.688 348.617 108.726 341.346C108.639 341.202 108.409 340.756 108.107 340.352C107.934 340.122 107.66 339.964 107.185 339.589C103.427 347.322 99.7413 354.968 96.9625 363.506C98.2728 363.305 99.0502 363.175 99.6262 363.089V363.074ZM332.787 83.5726C332.11 81.0959 330.757 80.3328 328.568 80.6064C325.43 80.9951 322.262 81.1823 319.109 81.5423C315.97 81.9023 314.53 83.3422 313.58 87.0284C319.699 84.2493 326.135 84.0046 332.773 83.5726H332.787ZM278.406 601.106C277.182 601.337 276.419 601.409 275.685 601.625C268.514 603.799 261.157 603.698 253.785 603.525C251.165 603.468 248.487 602.993 245.363 604.548C248.66 604.821 251.309 605.196 253.958 605.239C260.02 605.325 266.081 605.109 272.143 605.296C275.224 605.397 276.736 603.785 278.406 601.092V601.106ZM317.9 80.1024C325.444 77.1794 333.233 76.013 341.109 75.3075C340.706 73.4356 339.453 73.4932 338.201 73.6228C334.342 74.0116 330.483 74.6595 326.61 74.7171C322.867 74.7747 320.16 76.1138 318.332 79.3104C318.188 79.5696 318.044 79.8432 317.9 80.1024ZM201.146 638.573C201.218 638.731 201.276 638.89 201.348 639.048C210.807 637.579 220.252 636.125 229.712 634.656C229.352 634.224 229.05 634.138 228.747 634.181C222.599 634.815 216.466 635.06 210.303 634.152C209.54 634.037 208.604 634.152 207.942 634.527C205.624 635.794 203.392 637.219 201.132 638.573H201.146ZM525.101 536.209C518.521 535.014 516.577 536.181 515.022 542.142C516.779 542.761 518.55 543.395 520.537 544.1C522.121 541.364 523.575 538.844 525.101 536.195V536.209ZM546.151 203.1C544.265 196.548 540.867 190.774 536.691 185.302C536.245 187.102 536.043 188.816 536.159 190.501C536.216 191.321 536.677 192.329 537.282 192.862C540.68 195.871 543.732 199.126 546.136 203.085L546.151 203.1ZM89.3316 411.297C87.8774 406.171 86.5096 401.333 85.0698 396.25C84.0907 399.475 84.0331 410.505 84.969 413.514C86.4232 412.78 87.8342 412.06 89.3316 411.311V411.297ZM340.015 53.9104C341.268 52.7296 342.578 51.6209 343.715 50.3538C344.219 49.8066 344.565 48.9427 344.622 48.1939C345.112 42.6934 347.056 37.6825 349.546 32.83C349.993 31.9661 350.396 31.0733 350.813 30.195C345.328 37.193 341.699 45.0405 340 53.896L340.015 53.9104ZM85.9193 355.443C90.4115 349.021 94.5725 343.074 98.9063 336.882C96.5162 337.991 94.2989 338.941 92.1536 340.05C91.6065 340.338 91.117 341.029 90.901 341.634C89.274 346.011 87.719 350.417 85.9193 355.443ZM313.379 63.7306C313.191 63.7594 313.004 63.7738 312.817 63.8026C312.63 70.3254 312.457 76.8482 312.256 84.0334C313.681 82.1471 314.775 80.8224 315.697 79.3824C316.085 78.7633 316.359 77.8273 316.215 77.1218C315.337 72.6436 314.343 68.1943 313.393 63.7306H313.379ZM193.112 557.635C194.005 551.458 190.65 545.958 185.165 543.87C185.971 549.413 189.138 553.359 193.112 557.635ZM601.324 219.097C601.77 218.838 603.181 218.478 603.628 217.614C604.391 216.145 603.023 215.195 601.885 214.49C599.913 213.28 597.753 212.661 595.435 213.15C593.29 213.611 592.844 215.094 594.399 216.678C596.069 218.363 598.243 218.924 601.324 219.097ZM279.399 141.558C280.782 139.945 281.962 138.577 283.172 137.166C280.321 132.933 277.542 128.815 274.778 124.711C274.634 124.769 274.504 124.826 274.36 124.884C276.03 130.384 277.686 135.885 279.414 141.558H279.399ZM90.5842 462.486C90.4834 462.183 90.3827 461.881 90.2819 461.593C89.634 461.564 88.8997 461.305 88.3525 461.536C87.1431 462.025 85.9049 462.601 84.8826 463.407C81.5423 466.042 78.2883 468.793 74.6745 471.773C81.1823 470.189 86.8983 468.03 90.5842 462.5V462.486ZM104.032 334.794C102.103 335.154 101.196 336.162 100.576 337.559C98.6327 341.85 96.6314 346.112 94.6877 350.403C94.3997 351.037 94.2701 351.757 93.9102 352.894C97.884 347.149 101.541 341.864 105.285 336.45C104.896 335.932 104.478 335.385 104.032 334.809V334.794ZM655.432 434.609L655.46 434.062C650.896 432.665 646.318 431.254 641.739 429.872C638.715 428.965 636.671 430.621 634.41 432.435C641.638 433.184 648.535 433.889 655.417 434.595L655.432 434.609ZM325.358 105.402C324.148 105.286 322.953 105.042 321.744 105.07C316.013 105.2 310.283 105.358 304.553 105.632C301.918 105.747 301.659 106.165 301.169 109.275C309.045 106.338 317.223 106.136 325.358 105.402ZM302.465 101.24C299.931 95.2503 297.483 89.4618 295.036 83.6734C294.992 83.6878 294.935 83.7022 294.892 83.7166C296.533 91.0457 298.189 98.3749 299.931 106.136C300.896 104.264 301.731 102.666 302.479 101.24H302.465ZM203.133 569.875V560.011C200.167 559.579 197.475 559.19 194.61 558.773C197.46 562.488 200.225 566.088 203.133 569.875ZM687.496 403.651L687.237 403.118C686.186 403.449 685.163 403.881 684.098 404.097C680.513 404.846 676.928 406.027 673.328 406.113C669.786 406.185 667.799 408.028 665.337 410.519C673.415 409.324 680.686 407.208 687.51 403.665L687.496 403.651ZM228.186 612.064C222.124 608.853 216.163 605.685 210.03 602.431C209.886 603.367 209.713 604.433 209.526 605.556C215.516 608.767 221.678 610.797 228.186 612.064ZM512.791 611.071C515.584 618.069 519.443 624.303 524.669 629.689C524.453 628.81 523.964 628.105 523.575 627.342C521.905 624.073 519.774 620.934 518.751 617.478C517.772 614.138 515.728 612.352 512.791 611.085V611.071ZM288.672 103.199C288.485 103.227 288.283 103.256 288.096 103.285C289.32 109.894 290.543 116.503 291.854 123.559C292.847 121.399 294.532 119.7 293.869 117.627C292.329 112.76 290.428 108.008 288.672 103.213V103.199ZM177.001 559.694C176.54 556.57 175.648 554.093 173.344 552.408C171.89 551.343 170.723 551.991 170.767 553.805C170.824 556.469 171.774 558.83 173.805 560.616C174.352 561.091 175.36 561.509 175.95 561.322C176.497 561.149 176.756 560.112 177.001 559.694ZM557.712 548.809C557.396 547.47 557.295 546.318 556.849 545.31C556.561 544.647 555.841 543.812 555.25 543.755C554.646 543.697 553.681 544.345 553.364 544.935C552.112 547.34 552.126 549.874 553.321 552.293C554.07 553.805 555.567 553.834 556.417 552.336C557.05 551.213 557.324 549.889 557.712 548.794V548.809ZM246.673 641.856C250.877 638.271 257.025 626.895 257.169 622.878C256.622 623.281 256.161 623.67 255.643 624.001C253.728 625.196 252.849 626.91 252.216 629.127C251.237 632.525 249.624 635.751 248.228 639.034C247.81 640.013 247.205 640.92 246.673 641.87V641.856ZM140.574 215.627C136.312 214.158 132.31 215.742 130.798 219.328C133.937 221.876 139.71 219.788 140.574 215.627ZM329 66.9992C335.451 65.2713 341.527 63.6442 347.891 61.9307C343.499 61.9307 339.381 61.9307 335.278 61.9451C334.688 61.9451 333.925 61.9739 333.565 62.3195C332.038 63.745 330.627 65.3145 329.015 66.9992H329ZM53.6822 351.051C57.0801 351.569 59.7006 351.972 62.321 352.361C62.9113 352.448 63.6312 352.678 64.1063 352.448C66.5396 351.31 69.0592 350.317 71.7805 348.344C65.3734 348.43 59.7869 349.366 53.6822 351.065V351.051ZM664.862 408.878C666.907 408.129 668.116 406.66 668.663 404.529C669.628 400.872 670.693 397.243 671.644 393.586C671.975 392.304 672.148 390.98 672.349 389.669C672.551 388.388 672.68 387.092 672.795 386.214C670.247 393.5 667.583 401.102 664.848 408.863L664.862 408.878ZM342.894 67.7047L342.794 67.316C338.719 67.6903 334.659 68.2663 330.584 68.3671C327.244 68.4535 325.574 70.3974 323.731 73.1044C330.397 71.2325 336.646 69.4614 342.894 67.7047ZM513.77 609.645C513.698 609.803 513.626 609.947 513.554 610.106C514.878 610.754 516.174 611.862 517.528 611.963C524.568 612.496 531.609 612.496 538.059 611.272C530.284 610.754 522.02 610.192 513.755 609.645H513.77ZM615.218 400.181C615.837 396.811 616.37 393.96 616.917 391.009C614.628 390.389 612.929 391.297 611.316 392.333C610.495 392.866 610.366 393.687 611.057 394.407C611.518 394.896 612.18 395.213 612.756 395.602C612.468 396.077 612.108 396.682 611.705 397.344C612.785 398.208 613.807 399.029 615.232 400.166L615.218 400.181ZM381.913 102.047C382.115 103.256 382.302 104.466 382.518 105.675C383.598 111.737 383.209 117.699 381.179 123.516C380.243 126.208 380.43 126.741 382.964 128.383C383.324 123.962 383.756 119.484 384.044 115.006C384.39 109.52 383.655 104.207 381.927 102.047H381.913ZM301.256 126.626C298.606 126.165 295.928 125.704 293.25 125.229C292.372 127.26 291.45 128.872 291.091 130.687C293.913 130.096 296.375 129.419 298.894 129.103C300.406 128.915 301.126 128.325 301.27 126.612L301.256 126.626ZM112.023 348.085C110.324 351.713 108.898 357.459 109.028 360.007C111.389 359.834 111.389 359.834 112.037 357.919C112.455 356.667 112.728 355.356 113.304 354.176C114.456 351.785 113.52 349.985 112.023 348.085ZM653.113 419.951C653.157 420.124 653.2 420.311 653.243 420.484C655.763 420.138 658.282 419.821 660.802 419.447C663.192 419.087 665.697 419.389 668.015 418.497C666.288 417.964 664.416 417.978 662.933 417.229C659.29 415.386 656.54 416.553 653.977 419.173C653.704 419.447 653.401 419.706 653.113 419.965V419.951ZM386.564 138.232C386.088 136.072 385.066 135.15 383.324 134.934C380.891 134.632 378.472 134.229 376.039 133.883C374.498 133.667 373.26 134.2 372.281 135.51C377.032 136.417 381.697 137.31 386.564 138.232ZM74.3145 338.768C74.2857 338.884 74.2569 338.999 74.2281 339.114C76.6614 340.309 79.0658 341.533 81.5279 342.656C82.0174 342.872 82.7661 342.872 83.2557 342.656C84.9402 341.864 86.5672 340.928 88.2086 340.036C88.1654 339.82 88.1078 339.604 88.0646 339.373C83.486 339.172 78.8931 338.97 74.3145 338.754V338.768ZM272.647 607.01C267.003 608.148 261.776 609.199 256.535 610.264C260.192 610.639 263.778 610.61 267.377 610.639C269.839 610.667 271.221 609.213 272.647 607.01ZM309.765 608.133C308.469 609.544 307.058 610.423 306.684 611.618C306.036 613.763 306.007 616.11 305.704 618.544C310.297 616.427 310.744 612.885 309.765 608.133ZM60.8524 366.516L61.1692 366.789C64.3367 361.375 67.5043 355.975 70.9598 350.057C69.1312 351.137 67.2883 351.166 66.5108 353.038C64.6391 357.531 62.7385 362.023 60.8524 366.516ZM267.435 612.122C261.935 613.101 256.708 614.037 251.194 615.016C254.289 615.289 257.169 615.246 259.933 615.837C263.518 616.6 265.333 614.512 267.449 612.107L267.435 612.122ZM667.079 374.032C667.209 374.018 667.353 373.989 667.483 373.974C667.267 370.418 667.108 366.861 666.792 363.319C666.604 361.145 665.481 360.439 663.149 360.727C664.459 365.162 665.769 369.597 667.079 374.046V374.032ZM280.81 610.984C282.912 606.88 283.604 602.964 283.848 598.673C280.81 600.862 279.14 603.324 280.134 607.024C280.436 608.162 280.537 609.343 280.796 610.984H280.81ZM509.321 587.629C516.045 590.134 517.211 590.725 520.652 588.176C518.406 586.016 518.392 585.958 516.865 586.218C514.389 586.635 511.941 587.139 509.321 587.629ZM663.048 423.767C663.048 423.594 663.048 423.421 663.048 423.248C659.607 422.759 656.137 422.327 652.71 421.736C650.594 421.376 649.37 422.355 648.305 423.767H663.062H663.048ZM71.1901 355.903C74.3433 352.678 77.3813 349.568 80.4193 346.458C80.4768 346.386 80.5344 346.256 80.5056 346.17C80.4912 346.098 80.3617 346.054 80.2753 345.997C75.1496 347.278 71.5069 349.928 71.1758 355.903H71.1901ZM501.215 605.239C502.655 609.17 503.965 612.726 505.376 616.542C505.289 612.928 505.246 609.674 505.131 606.42C505.117 605.844 505.03 605.095 504.67 604.764C503.59 603.785 502.338 602.964 501.172 602.086C501.042 602.244 500.927 602.388 500.797 602.546C501.805 603.612 502.813 604.663 503.835 605.728C503.792 605.844 503.734 605.959 503.691 606.088C503 605.844 502.309 605.613 501.229 605.239H501.215ZM386.592 134.099C386.823 128.887 387.039 124.02 387.255 119.153C386.088 121.903 385.498 124.769 384.634 127.562C383.871 130.082 384.361 132.098 386.592 134.099ZM72.8603 438.051C76.503 439.764 80.1313 441.463 83.774 443.162C84.4219 443.465 85.0698 443.753 85.7465 443.969C85.9769 444.041 86.2936 443.882 87.1863 443.695C82.7805 440.052 78.3747 437.806 72.8603 438.036V438.051ZM345.817 47.258L346.465 47.9347C347.977 46.2212 349.949 44.7093 350.871 42.7222C351.807 40.7064 351.692 38.2153 352.037 35.9402C349.244 39.3816 347.271 43.183 345.817 47.258ZM581.411 278.393C579.885 277.529 578.661 276.838 577.466 276.161C576.329 277.183 575.379 278.033 574.4 278.911C575.595 280.394 576.531 281.561 577.582 282.885C578.892 281.359 580.015 280.049 581.411 278.393ZM337.25 48.3091C335.739 51.7937 334.673 55.3359 333.953 59.2236C335.638 57.7693 337.006 56.5886 338.287 55.4799C337.927 52.9312 337.596 50.6274 337.265 48.3091H337.25ZM513.539 559.032C514.259 557.131 514.936 555.36 515.771 553.157C513.943 553.33 512.546 553.46 510.962 553.604C510.66 555.504 510.372 557.247 510.041 559.291C511.495 559.176 512.488 559.104 513.525 559.032H513.539ZM124.895 460.916C122.922 463.638 121.871 466.374 121.079 469.556C126.522 466.705 127.601 464.415 124.895 460.916ZM272.244 150.831C269.782 148.023 267.42 145.33 265.059 142.652C264.929 142.739 264.8 142.825 264.67 142.911C266.24 146.266 267.795 149.621 269.465 153.207C270.559 152.271 271.322 151.623 272.244 150.831ZM201.549 190.357C199.908 189.133 198.44 188.038 196.885 186.858C195.733 190.645 196.712 192.358 200.642 193.884C200.916 192.804 201.19 191.739 201.549 190.357ZM402.992 586.477C399.637 583.986 398.456 584.087 394.886 587.067C397.463 587.787 399.954 588.478 402.617 589.227C402.761 588.19 402.862 587.398 402.992 586.477ZM571.405 291.554C572.946 288.933 574.803 287.378 575.537 285.031H569.245C569.965 287.176 570.555 288.991 571.419 291.554H571.405ZM533.063 567.412C538.65 566.649 538.678 566.62 538.506 562.214C536.648 562.819 534.834 563.409 532.905 564.043C532.962 565.224 533.005 566.203 533.063 567.427V567.412ZM510.645 616.038C511.236 612.078 511.956 608.004 506.456 606.535C507.924 609.861 509.278 612.942 510.645 616.038ZM567.892 451.975V446.892C567.417 447.28 567.014 447.612 566.481 448.044V445.092C563.947 444.631 563.99 446.604 563.27 447.943C564.667 449.339 565.156 451.442 567.892 451.975ZM295.611 114.43C298.635 110.038 298.304 106.525 294.791 103.112C295.05 106.755 295.324 110.398 295.611 114.43ZM245.679 637.551C248.084 634.642 250.229 631.546 251.784 627.442C248.425 629.708 246.39 633.077 245.679 637.551ZM342.707 83.7022C341.152 80.8943 337.625 80.016 334.198 81.3695C335.916 83.107 338.753 83.8846 342.707 83.7022ZM663.883 411.311C662.53 412.434 661.32 413.428 660.111 414.422C660.212 414.609 660.312 414.796 660.413 414.983C663.667 414.479 666.921 413.975 670.175 413.471C670.175 413.298 670.175 413.126 670.175 412.953C668.145 412.42 666.115 411.887 663.883 411.311ZM347.516 48.2515C352.354 47.3156 356.99 46.4228 361.626 45.5301C358.171 45.2565 354.744 45.4725 351.317 45.5733C349.474 45.6309 348.38 46.5236 347.502 48.2515H347.516ZM492.547 556.267C489.711 556.829 486.874 557.391 483.937 557.967C484.038 559.162 484.11 559.939 484.211 560.933C487.45 560.026 490.186 558.629 492.547 556.282V556.267ZM340.908 55.2063C344.55 53.5072 347.819 51.9953 351.159 50.4402C346.854 48.9571 344.694 49.9218 340.908 55.2063ZM669.239 350.029L668.491 350.086C668.591 351.353 668.447 352.707 668.865 353.844C670.089 357.257 671.543 360.583 673.011 364.183C672.652 359.042 671.485 354.392 669.239 350.014V350.029ZM532.602 593.201C530.039 591.891 529.579 591.848 527.937 592.481C525.015 593.619 522.092 594.713 518.737 595.995C523.676 595.404 528.139 594.814 532.602 593.187V593.201ZM98.2872 335.025C93.9678 335.457 90.3683 335.831 86.236 336.249C87.6326 337.127 88.5829 337.861 89.6484 338.337C90.2099 338.581 91.0882 338.596 91.6497 338.337C93.6942 337.429 95.6523 336.364 98.2872 335.025ZM289.622 590.293C288.485 591.877 287.75 593.057 286.858 594.123C285.547 595.692 285.778 597.204 286.699 598.903C289.824 596.931 290.414 594.18 289.622 590.307V590.293ZM262.323 618.875C261.186 620.099 258.868 620.243 258.897 622.633C258.925 624.332 258.897 626.017 258.897 628.177C260.581 625.858 261.891 622.475 262.309 618.875H262.323ZM592.08 441.607C594.111 438.468 594.6 426.574 592.772 423.119C592.944 426.69 593.29 429.584 593.175 432.449C593.059 435.329 592.512 438.195 592.08 441.622V441.607ZM339.396 113.105C334.86 112.673 331.232 113.652 326.956 115.006C331.664 116.302 335.235 115.049 339.396 113.105ZM368.35 117.555C369.646 120.42 371.806 121.774 375.779 122.263C373.965 119.7 372.295 117.079 368.35 117.555ZM374.815 110.686C372.713 117.339 372.857 118.03 376.715 120.665C376.096 117.411 375.492 114.257 374.815 110.686ZM249.711 627.313C244.671 627.889 239.935 628.422 235.198 628.969C238.97 629.329 242.728 629.3 246.486 629.329C247.767 629.329 248.933 629.228 249.711 627.313ZM270.458 599.825H277.672C277.211 598.587 276.894 597.723 276.635 597.017C273.842 596.671 272.128 598.097 270.458 599.825ZM540.896 185.475C541.116 181.779 540.468 179.389 538.952 178.305C538.362 179.615 537.786 180.896 537.167 182.25C538.362 183.287 539.413 184.194 540.896 185.461V185.475ZM587.819 347.61C586.494 345.306 584.824 343.952 582.319 344.629C581.253 344.917 580.49 345.565 581.34 347.062C583.427 347.235 585.63 347.422 587.819 347.61ZM480.813 615.779C480.424 611.416 480.05 607.068 479.603 602.719C479.56 602.287 479.027 601.898 478.725 601.481C478.711 606.448 479.071 611.229 480.813 615.779ZM645.151 422.946C645.324 423.09 645.483 423.219 645.655 423.363C646.534 422.499 647.815 421.78 648.218 420.728C649.096 418.381 649.543 415.861 650.147 413.414C650.032 413.37 649.917 413.342 649.788 413.298L645.137 422.946H645.151ZM246.918 625.153C251.323 626.852 253.929 624.822 256.579 621.524C253.152 622.806 250.2 623.915 246.918 625.153ZM378.789 113.825C378.616 113.825 378.443 113.811 378.27 113.796C378.126 116.23 378.069 118.663 377.824 121.097C377.666 122.637 378.213 123.559 379.811 124.337C379.451 120.65 379.12 117.238 378.789 113.825ZM367.155 85.4733C368.782 87.8635 371.115 88.5979 373.13 87.7483C373.433 87.6187 373.865 87.8203 374.239 87.8635C374.613 87.9067 374.988 87.9355 375.362 87.9787C375.42 87.7195 375.463 87.4748 375.52 87.2156C372.986 86.3372 370.308 86.006 367.184 85.4733H367.155ZM154.339 427.957C154.094 428.029 153.863 428.115 153.619 428.187C153.619 430.405 152.927 432.636 153.705 434.969C156.124 433.342 156.153 433.342 155.505 431.269C155.159 430.145 154.727 429.065 154.339 427.957ZM499.041 612.381L499.444 612.28C499.084 609.659 498.681 607.053 498.378 604.433C498.22 603.093 497.5 602.575 495.859 602.287C496.996 605.901 498.018 609.141 499.041 612.381ZM525.115 618.486C526.08 620.257 527.376 620.632 528.902 620.689C530.227 620.747 531.551 621.006 532.876 621.078C534.186 621.15 535.496 621.092 537.296 621.092C532.991 620.171 529.219 619.364 525.115 618.486ZM360.532 121.961C355.867 120.449 351.98 122.652 348.222 125.258C350.223 124.711 352.124 123.861 354.111 123.3C356.256 122.695 358.473 122.378 360.546 121.961H360.532ZM302.595 89.9802C302.393 90.0378 302.206 90.0954 302.004 90.153C302.911 92.8312 302.494 95.7255 303.674 98.4469C304.337 97.4534 304.999 96.3446 304.783 95.4663C304.293 93.58 303.358 91.7945 302.609 89.9802H302.595ZM296.951 590.566C297.152 590.105 297.57 589.63 297.526 589.198C297.382 587.485 297.498 585.699 296.72 584.072C294.201 585.008 294.143 585.397 296.951 590.566ZM519.587 545.497C517.355 545.166 515.454 544.719 513.338 545.972C514.878 546.692 516.419 547.426 518.132 548.233C518.651 547.254 519.054 546.505 519.587 545.511V545.497ZM95.9403 458.584C99.5686 457.576 100.62 456.424 100.389 453.89C98.0568 454.494 96.3434 455.589 95.9403 458.584ZM617.19 439.577C617.68 442.989 619.926 444.012 623.367 444.386C620.992 442.572 619.494 440.57 617.19 439.577ZM194.84 523.394C195.33 523.769 195.819 524.143 196.409 524.589C197.633 523.092 198.699 521.767 199.822 520.399C197.532 519.29 197.475 519.319 194.854 523.394H194.84ZM220.814 602.431C220.987 602.215 221.145 602.013 221.318 601.798C219.705 600.473 218.107 599.148 216.379 597.737C215.789 598.529 215.4 599.062 214.81 599.854C216.984 600.79 218.913 601.61 220.828 602.431H220.814ZM625.858 433.659C626.276 432.118 626.549 431.081 626.852 429.901C625.268 429.656 624.001 429.454 622.662 429.253C622.115 431.931 624.389 432.061 625.844 433.659H625.858ZM364.002 126.842C359.625 126.468 359.179 126.669 358.516 129.275C361.007 130.024 362.461 128.57 364.002 126.842ZM328.626 64.0042C332.974 61.1243 333.334 60.894 331.448 56.9918C330.483 59.382 329.562 61.6859 328.626 64.0042ZM558.029 581.84C559.527 583.928 560.707 585.57 561.873 587.211C562.017 587.11 562.176 587.01 562.32 586.909C561.672 584.735 561.038 582.575 560.232 579.853C559.296 580.688 558.72 581.207 558.015 581.84H558.029ZM538.621 584.475C538.362 584.418 538.102 584.346 537.843 584.288C537.627 584.965 537.152 585.699 537.267 586.318C537.483 587.499 537.973 588.651 538.477 589.76C538.635 590.105 539.211 590.249 539.6 590.48C539.816 589.99 540.291 589.443 540.19 589.04C539.773 587.485 539.168 585.987 538.635 584.461L538.621 584.475ZM268.155 614.397C263.907 617.233 263.677 616.657 265.001 620.56C266.096 618.429 267.118 616.413 268.155 614.397ZM509.018 605.714C511.308 609.616 514.317 607.586 517.038 607.183C514.461 606.708 511.884 606.232 509.018 605.714ZM659.737 412.55C663.883 411.124 663.278 408.043 663.336 405.249C662.227 407.496 661.133 409.727 659.737 412.55ZM381.654 99.9876L382.503 99.5988C381.87 97.9717 381.265 96.3158 380.531 94.7319C380.43 94.5303 379.638 94.6455 378.918 94.6023C379.869 96.6038 380.085 98.6485 381.654 99.9732V99.9876ZM209.713 587.326C210.001 587.269 210.275 587.211 210.563 587.154C210.649 584.418 209.756 581.984 207.755 579.882C208.403 582.359 209.065 584.835 209.713 587.312V587.326ZM676.654 399.677C676.827 399.821 677.014 399.95 677.187 400.094C679.995 398.323 680.009 395.17 680.614 392.304C679.289 394.767 677.964 397.229 676.64 399.677H676.654ZM319.93 114.603C323.126 115.481 324.321 113.451 326.092 111.968C323.328 111.277 322.003 113.076 319.93 114.603ZM497.831 594.929C500.408 597.823 503.634 596.182 506.643 596.297C503.706 595.836 500.768 595.39 497.831 594.929ZM365.355 102.536C365.125 102.637 364.895 102.752 364.679 102.853C364.895 104.336 365.096 105.805 365.341 107.461H367.558C366.838 105.618 366.738 103.775 365.37 102.536H365.355ZM387.154 103.904C387.154 100.794 386.506 98.2741 385.57 95.8119C385.441 95.4807 384.778 95.3655 383.986 94.9623C385.109 98.1301 386.06 100.794 387.168 103.904H387.154ZM486.543 541.58C484.527 541.465 482.325 540.673 480.194 542.631C482.771 543.395 484.599 542.271 486.543 541.58ZM371.734 93.9832C372.526 95.6679 372.482 97.3238 374.138 98.7925V93.9832H371.734ZM615.074 404.472C613.821 402.283 611.863 401.549 608.84 402.024C610.841 403.349 612.655 403.809 615.074 404.472ZM496.305 559.061C494.865 560.213 493.569 561.25 492.274 562.286C492.374 562.445 492.461 562.603 492.562 562.761C494.088 562.373 495.628 561.984 497.313 561.538C496.91 560.573 496.651 559.925 496.305 559.061ZM371.086 110.571C368.926 113.192 369.214 113.984 372.252 115.438C371.878 113.912 371.547 112.5 371.086 110.571ZM372.079 123.905C374.268 124.769 376.456 125.632 378.63 126.511C377.19 123.602 374.426 124.337 372.079 123.905ZM196.971 500.672C195.718 503.149 196.568 504.056 199.865 503.984C198.857 502.832 198.036 501.896 196.971 500.672ZM537.382 570.955C536.087 572.394 533.538 571.631 534.229 574.324C536.226 573.988 537.277 572.865 537.382 570.955ZM353.016 129.506C355.282 129.746 356.659 129.098 357.148 127.562C355.421 127.86 354.043 128.507 353.016 129.506ZM95.2204 398.885C95.7387 396.394 93.9534 395.789 92.4704 394.724C91.8656 397.287 93.6222 397.906 95.2204 398.885ZM92.5856 390.159C91.9376 392.866 92.096 393.082 95.5515 394.234C95.2636 392.276 93.867 391.369 92.5856 390.159ZM483.52 574.454C481.317 574.324 479.099 574.194 476.897 574.079C476.767 574.079 476.637 574.31 476.493 574.439C478.423 575.26 479.099 575.303 483.52 574.439V574.454ZM364.275 135.136C366.435 135.654 367.875 135.265 368.984 133.725C367.472 134.013 365.643 132.962 364.275 135.136ZM292.674 592.726C293.567 590.681 292.991 588.982 292.847 587.11C291.753 588.003 291.695 589.875 292.674 592.726ZM210.923 597.723C211.47 596.081 211.844 594.468 210.39 592.539C210.275 594.612 209.929 596.225 210.923 597.723ZM130.121 420.138C129.718 422.24 130.164 423.762 131.46 424.703C130.942 422.917 130.524 421.52 130.121 420.138ZM564.739 603.324C562.392 603.151 562.046 603.324 559.21 605.872C561.053 605.023 562.896 604.173 564.739 603.324ZM365.902 114.272C367.256 114.876 368.609 115.481 370.438 116.302C369.329 113.825 367.789 113.652 365.902 114.272ZM350.065 590.494C350.223 590.235 350.381 589.961 350.54 589.702C349.647 588.55 348.639 587.658 346.71 588.593C347.833 589.227 348.942 589.861 350.065 590.509V590.494ZM363.44 86.582C363.642 83.9614 362.015 84.7101 360.95 84.3501C360.834 84.5661 360.719 84.7821 360.604 84.9981C361.554 85.5309 362.505 86.0492 363.44 86.582ZM478.797 599.119C479.056 599.033 479.315 598.946 479.575 598.874C479.949 597.449 479.906 596.182 477.544 595.332C478.063 596.902 478.437 598.025 478.811 599.134L478.797 599.119ZM378.861 89.8794C378.04 88.6699 378.011 87.4028 376.543 87.23C376.024 88.9867 376.543 89.8506 378.861 89.8794ZM392.496 583.511C393.835 583.338 394.986 583.194 396.426 583.021C394.545 581.917 393.235 582.08 392.496 583.511ZM614.901 408.504C612.684 407.236 610.927 406.891 609.027 407.179C610.668 408.043 612.324 408.806 614.901 408.504ZM339.785 615.894C339.986 617.161 340.202 618.414 340.476 620.171C342.189 618.054 340.807 617.003 339.785 615.894ZM478.811 584.519C478.207 582.647 477.76 581.25 477.314 579.853C476.306 581.754 476.709 583.165 478.811 584.519ZM145.829 441.233C149.011 441.103 149.054 441.06 148.493 438.814C147.687 439.548 146.981 440.182 145.829 441.233ZM496.579 543.063C495.139 542.372 493.641 541.436 492.302 543.697C493.958 543.452 495.268 543.251 496.579 543.063ZM347.79 84.0046C346.912 82.6222 346.379 81.3119 344.377 81.8303C345.313 82.867 345.904 84.0622 347.79 84.0046ZM150.797 434.811C150.293 435.703 149.803 436.611 149.227 437.647C150.84 437.561 151.363 436.615 150.797 434.811ZM131.028 426.776C130.308 425.955 129.876 424.616 128.134 424.947C128.566 426.632 129.934 426.531 131.028 426.776ZM93.2047 401.174C92.7727 403.449 93.6366 404.025 95.4651 403.752C94.8172 403.003 94.1549 402.254 93.2047 401.174ZM222.743 596.542C221.947 594.641 221.03 594.065 219.993 594.814C220.958 595.419 221.851 595.98 222.743 596.542ZM487.018 600.401C487.421 597.852 486.111 597.247 484.772 596.614C485.406 597.694 486.054 598.759 487.018 600.401ZM612.022 439.649C611.964 437.561 610.755 436.611 609.66 435.588C610.193 436.913 610.049 438.612 612.022 439.649ZM602.476 367.581C602.389 368.733 602.317 369.568 602.245 370.403C603.599 369.626 604.362 368.805 602.476 367.581ZM102.203 417.417C102.275 417.215 102.347 417.013 102.419 416.812C101.066 416.322 99.6982 415.818 98.3447 415.329C98.2728 415.53 98.2008 415.732 98.1288 415.933C99.4822 416.423 100.85 416.927 102.203 417.417ZM600.014 424.069C599.899 424.069 599.798 424.069 599.683 424.069V428.475C599.798 428.475 599.899 428.475 600.014 428.475V424.069ZM492.562 601.913C492.878 599.407 491.698 599.076 490.243 598.99C490.891 599.81 491.554 600.646 492.562 601.913ZM59.8013 354.435C59.7581 354.248 59.7293 354.06 59.6862 353.873C58.8223 354.046 57.944 354.204 57.0801 354.377C57.1233 354.579 57.1665 354.78 57.1953 354.982L59.8013 354.435ZM306.194 581.74C306.54 580.631 306.712 579.551 305.704 578.384C304.812 579.882 305.834 580.746 306.194 581.74ZM334.817 128.541C334.875 128.743 334.932 128.93 334.99 129.131C335.552 129.031 336.142 128.987 336.689 128.829C337.25 128.656 337.783 128.383 338.316 128.152C338.273 128.023 338.23 127.893 338.201 127.764C337.078 128.023 335.955 128.282 334.817 128.555V128.541ZM364.506 618.213C364.319 618.529 364.132 618.832 363.944 619.148L366.205 620.214C366.306 620.012 366.406 619.825 366.522 619.624L364.506 618.213ZM257.126 569.313C257.255 569.601 257.37 569.903 257.5 570.191C258.407 569.716 259.329 569.241 260.236 568.751L259.976 568.19C259.026 568.564 258.09 568.924 257.14 569.299L257.126 569.313ZM149.054 413.673L149.702 413.558C149.63 413.082 149.63 412.607 149.486 412.161C149.328 411.686 149.054 411.254 148.824 410.807C148.666 410.865 148.522 410.923 148.363 410.98C148.594 411.873 148.824 412.78 149.054 413.673ZM126.435 417.676C126.622 417.561 126.81 417.445 126.982 417.33C126.522 416.437 126.954 415.098 125.096 414.551C125.629 415.789 126.032 416.725 126.435 417.676ZM111.879 428.878C111.879 429.123 111.85 429.353 111.85 429.598L115.795 429.814C115.795 429.569 115.809 429.325 115.824 429.094C114.514 429.022 113.189 428.95 111.879 428.878ZM131.546 430.073C130.423 429.469 129.252 429.469 128.033 430.073H131.546ZM551.046 601.999C550.057 601.73 549.093 601.999 548.152 602.805C549.29 602.489 550.168 602.244 551.046 601.999ZM624.634 434.264C623.454 433.673 622.691 433.284 621.927 432.896C622.187 434.235 622.503 435.401 624.634 434.264ZM620.588 438.051C620.502 438.339 620.416 438.626 620.329 438.929C620.992 439.102 621.639 439.274 622.302 439.433C622.359 439.217 622.431 439.001 622.489 438.785C621.855 438.54 621.222 438.295 620.588 438.051ZM541.5 176.116L540.852 175.813C540.579 176.332 540.32 176.85 540.046 177.354C540.305 177.455 540.78 177.685 540.795 177.657C541.068 177.167 541.284 176.634 541.5 176.116ZM595.219 411.873C594.341 412.362 593.765 412.679 593.175 412.996C594.269 413.601 595.176 413.846 595.219 411.873ZM629.299 447.151L629.702 446.474C628.853 446.042 628.003 445.61 627.154 445.178C627.053 445.365 626.967 445.552 626.866 445.74C627.672 446.215 628.493 446.69 629.299 447.165V447.151ZM571.088 241.07C571.189 241.286 571.29 241.517 571.391 241.733C572.355 241.819 573.017 241.387 573.118 239.99C572.442 240.35 571.765 240.71 571.088 241.07ZM618.99 423.363C619.293 423.363 619.609 423.378 619.912 423.392C619.825 422.643 619.725 421.88 619.638 421.132C619.422 421.16 619.206 421.175 618.99 421.204V423.363ZM462.686 575.749C462.93 575.735 463.175 575.721 463.434 575.706C463.334 574.756 463.247 573.806 463.146 572.855C462.988 572.87 462.844 572.884 462.686 572.898V575.749ZM569.173 451.715C570.075 450.631 570.373 449.431 570.066 448.116C569.764 449.339 569.548 450.218 569.173 451.715ZM492.374 590.941C492.317 591.2 492.245 591.445 492.187 591.704C493.152 591.92 494.131 592.15 495.096 592.366C495.139 592.179 495.196 591.992 495.24 591.805L492.374 590.941ZM576.747 404.4C576.027 405.187 575.998 405.878 576.66 406.473C576.703 405.667 576.718 405.033 576.747 404.4ZM93.5646 405.58C93.6222 406.531 93.6654 407.179 93.723 408.144C94.3997 407.64 94.8316 407.323 95.4795 406.833C94.7596 406.358 94.2989 406.056 93.5646 405.566V405.58ZM315.135 610.912C316.705 610.437 316.345 609.688 315.668 608.911C315.596 608.824 315.351 608.882 315.034 608.867C315.063 609.544 315.092 610.192 315.121 610.912H315.135ZM511.869 573.143C511.797 571.905 511.768 571.286 511.696 570.177C510.444 571.372 510.473 571.991 511.869 573.143ZM470.547 571.934C469.971 571.012 469.323 570.479 468.301 571.775C469.294 571.847 469.928 571.891 470.547 571.934ZM338.546 575.591C339.813 575.692 340.504 575.749 341.181 575.807C340.591 575.03 340.087 574.05 338.546 575.591ZM486.558 603.698C486.342 603.698 486.111 603.713 485.895 603.727L486.097 606.909C486.255 606.909 486.399 606.909 486.558 606.895V603.698ZM279.515 151.177C279.515 151.177 279.615 151.105 279.659 151.076V149.146C279.659 149.146 279.558 149.146 279.515 149.146V151.177ZM469.986 574.382C469.755 574.482 469.51 574.583 469.28 574.67C469.539 575.289 469.798 575.908 470.072 576.513C470.302 576.412 470.533 576.325 470.763 576.225C470.504 575.605 470.259 574.986 470 574.367L469.986 574.382ZM345.976 591.416C345.918 592.481 345.889 593 345.846 593.504C346.292 593.475 346.753 593.46 347.574 593.417C347.012 592.712 346.681 592.294 345.961 591.416H345.976ZM355.766 83.3134C355.565 83.4718 355.363 83.6302 355.147 83.7742C355.493 84.1918 355.853 84.5949 356.198 85.0125L356.601 84.7101C356.313 84.235 356.04 83.7742 355.752 83.299L355.766 83.3134ZM568.957 453.069C568.9 453.27 568.842 453.472 568.784 453.688C569.36 453.875 569.936 454.048 570.512 454.235C570.584 453.962 570.656 453.688 570.714 453.4C570.123 453.285 569.533 453.184 568.943 453.069H568.957ZM102.751 401.434C102.851 401.318 102.966 401.189 103.067 401.074C102.679 400.642 102.304 400.21 101.915 399.763C101.8 399.878 101.685 399.979 101.57 400.094C101.959 400.541 102.347 400.987 102.751 401.434ZM581.671 398.539C582.491 398.007 582.966 397.704 583.83 397.157C582.275 396.682 581.887 397.099 581.671 398.539ZM610.265 373.442C610.092 373.614 610.006 373.672 609.963 373.758C609.934 373.816 609.948 373.96 609.977 373.989C610.654 374.32 611.345 374.637 612.036 374.968C612.108 374.795 612.18 374.622 612.252 374.464C611.575 374.118 610.899 373.787 610.265 373.456V373.442ZM127.889 422.24C128.12 422.183 128.35 422.125 128.581 422.067C128.336 421.42 128.091 420.772 127.846 420.124C127.717 420.167 127.587 420.196 127.457 420.239C127.601 420.916 127.745 421.578 127.889 422.255V422.24ZM575.768 440.498C575.983 440.556 576.199 440.599 576.415 440.657C576.545 440.009 576.675 439.375 576.804 438.727C576.646 438.684 576.473 438.655 576.315 438.612C576.142 439.246 575.955 439.865 575.782 440.498H575.768ZM366.723 27.1424L366.277 26.7824C365.845 27.2432 365.427 27.7039 364.995 28.1647C365.096 28.2511 365.183 28.3519 365.283 28.4383C365.758 28.0063 366.234 27.5743 366.723 27.1424ZM361.626 134.488C361.511 134.301 361.381 134.114 361.266 133.926C360.806 134.229 360.33 134.546 359.87 134.848C359.985 135.021 360.086 135.179 360.201 135.352C360.676 135.064 361.151 134.776 361.626 134.488ZM479.157 577.593C479.157 577.794 479.186 578.01 479.2 578.212C479.935 578.154 480.683 578.097 481.418 578.053C481.418 577.938 481.418 577.823 481.418 577.708C480.669 577.665 479.906 577.636 479.157 577.593Z" fill="#B7BFB7" fill-opacity="0.9"/>
</svg>
