<?xml version="1.0" standalone="no"?>
<!DOCTYPE svg PUBLIC "-//W3C//DTD SVG 1.1//EN" "http://www.w3.org/Graphics/SVG/1.1/DTD/svg11.dtd" >
<svg xmlns="http://www.w3.org/2000/svg" xmlns:xlink="http://www.w3.org/1999/xlink" version="1.1">
<metadata>
Created by FontForge 20201107 at Sat Oct 22 12:48:50 1994
 By Unknown
Digital font data from The WSI-FONT Collection.  Copyright (c)1992-1994 Weatherly Systems, Inc.  All Rights Reserved.  Redistribution strictly prohibited.
</metadata>
<defs>
<font id="Billboard" horiz-adv-x="485" >
  <font-face 
    font-family="Billboard"
    font-weight="5"
    font-stretch="normal"
    units-per-em="1000"
    panose-1="0 0 0 0 0 0 0 0 0 0"
    ascent="800"
    descent="-200"
    x-height="588"
    cap-height="718"
    bbox="-115 -180 967 880"
    underline-thickness="50"
    underline-position="-125"
    unicode-range="U+0020-F002"
  />
<missing-glyph horiz-adv-x="800" 
d="M50 0v800h700v-800h-700zM700 50v700h-600v-700h600z" />
    <glyph glyph-name=".notdef" horiz-adv-x="800" 
d="M50 0v800h700v-800h-700zM700 50v700h-600v-700h600z" />
    <glyph glyph-name=".null" horiz-adv-x="0" 
 />
    <glyph glyph-name="nonmarkingreturn" horiz-adv-x="240" 
 />
    <glyph glyph-name="space" unicode=" " horiz-adv-x="240" 
 />
    <glyph glyph-name="exclam" unicode="!" horiz-adv-x="240" 
d="M224 718l-29 -541h-135l-29 541h193zM209 0h-164v144h164v-144z" />
    <glyph glyph-name="quotedbl" unicode="&#x22;" horiz-adv-x="328" 
d="M312 608l-20 -121h-89l-23 121v110h132v-110zM148 608l-20 -121h-89l-23 121v110h132v-110z" />
    <glyph glyph-name="numbersign" unicode="#" horiz-adv-x="556" 
d="M540 168h-132l-35 -168h-83l36 168h-155l-34 -168h-83l35 168h-73v84h90l27 134h-117v84h133l36 170h82l-36 -170h154l35 170h82l-35 -170h73v-84h-89l-27 -134h116v-84zM369 386h-154l-27 -133h154z" />
    <glyph glyph-name="dollar" unicode="$" horiz-adv-x="486" 
d="M462 215q0 -191 -180 -218v-67h-81v69q-77 8 -122 56q-53 56 -53 158v44h175v-44q0 -74 6 -90.5t26 -16.5q24 0 29 14.5t5 67.5q0 64 -63 109q-59 40 -117 81q-64 61 -64 162q0 159 178 182v57h81v-57q78 -10 118.5 -53.5t40.5 -110.5v-50h-175v50q0 24 -2 33
q-5 24 -30 24q-32 0 -32 -51q0 -59 67 -100q118 -72 125 -78q68 -62 68 -171z" />
    <glyph glyph-name="percent" unicode="%" horiz-adv-x="615" 
d="M274 466q0 -69 -27 -98t-98 -29t-102 30t-31 97v129q0 76 28 106t98 30q71 0 101.5 -32.5t30.5 -103.5v-129zM478 731l-274 -745h-67l275 745h66zM599 125q0 -72 -27.5 -102.5t-96.5 -30.5q-72 0 -103 30t-31 97v130q0 75 27.5 105.5t98.5 30.5t101.5 -30.5t30.5 -105.5
v-124zM163 446v181v11q0 19 -3 24.5t-15 5.5t-15.5 -7t-3.5 -34v-181q0 -31 3.5 -37.5t15.5 -6.5q11 0 14.5 8.5t3.5 35.5zM488 99v181q0 28 -3 35t-15 7t-15 -6.5t-3 -35.5v-181q0 -31 3 -37t15 -6q13 0 15.5 7.5t2.5 35.5z" />
    <glyph glyph-name="ampersand" unicode="&#x26;" horiz-adv-x="511" 
d="M511 0h-161l-22 40q-83 -55 -154 -55q-74 0 -116 50t-42 127q0 56 22.5 89t74.5 57q-70 50 -70 137q0 76 49.5 121.5t136.5 45.5q76 0 121.5 -44.5t45.5 -114.5q0 -72 -54 -129l62 -114l95 63v-121l-49 -32zM259 474q0 17 -8.5 29t-24.5 12q-29 0 -29 -39q0 -41 32 -78
q15 20 22.5 38t7.5 38zM269 121l-57 97q-33 -30 -33 -66q0 -50 41 -50q21 0 49 19z" />
    <glyph glyph-name="quotesingle" unicode="'" horiz-adv-x="164" 
d="M148 608l-20 -121h-89l-23 121v110h132v-110z" />
    <glyph glyph-name="parenleft" unicode="(" horiz-adv-x="278" 
d="M262 0h-55q-111 0 -141 33t-30 143v366q0 114 29 145t142 31h55v-94q-47 0 -57 -12t-10 -70v-366q0 -59 9.5 -70.5t57.5 -11.5v-94z" />
    <glyph glyph-name="parenright" unicode=")" horiz-adv-x="278" 
d="M241 176q0 -111 -26 -141q-31 -35 -144 -35h-55v94q49 0 58 12t9 69v367q0 58 -7 68q-10 14 -60 14v94h55q111 0 140.5 -31.5t29.5 -144.5v-366z" />
    <glyph glyph-name="asterisk" unicode="*" horiz-adv-x="249" 
d="M236 617l-64 -28l40 -58l-43 -33l-44 59l-43 -59l-45 33l41 60l-65 26l19 52l66 -23v72h54v-72l65 23z" />
    <glyph glyph-name="plus" unicode="+" horiz-adv-x="473" 
d="M445 304h-156v-159h-106v159h-155v108h155v160h106v-160h156v-108z" />
    <glyph glyph-name="comma" unicode="," horiz-adv-x="149" 
d="M133 76q0 -77 -28.5 -115.5t-88.5 -52.5v52q24 13 29 40h-29v140h117v-64z" />
    <glyph glyph-name="hyphen" unicode="-" horiz-adv-x="261" 
d="M246 232h-230v124h230v-124z" />
    <glyph glyph-name="period" unicode="." horiz-adv-x="164" 
d="M148 0h-132v146h132v-146z" />
    <glyph glyph-name="slash" unicode="/" horiz-adv-x="351" 
d="M346 731l-208 -745h-133l209 745h132z" />
    <glyph glyph-name="zero" unicode="0" horiz-adv-x="476" 
d="M444 224q0 -132 -57 -189q-49 -49 -150 -49q-103 0 -149 45q-57 55 -57 193v251q0 139 48.5 197.5t157.5 58.5t158 -58.5t49 -197.5v-251zM269 179v356q0 58 -5 72t-26 14q-20 0 -26 -14t-6 -72v-356q0 -56 5 -69t26 -13q19 0 25.5 16t6.5 66z" />
    <glyph glyph-name="one" unicode="1" horiz-adv-x="338" 
d="M301 0h-175v425q0 64 -15 79t-76 15h-30v84q127 27 193 115h103v-718z" />
    <glyph glyph-name="two" unicode="2" horiz-adv-x="445" 
d="M424 544q0 -66 -30 -130q-37 -80 -177 -292h192v-122h-386v102q160 267 202 352q34 68 34 109q0 58 -39 58q-28 0 -34 -19t-6 -83v-46h-157v46q0 99 38 150q46 62 152 62q101 0 156 -51t55 -136z" />
    <glyph glyph-name="three" unicode="3" horiz-adv-x="470" 
d="M439 215q0 -124 -47.5 -176.5t-157.5 -52.5q-121 0 -164.5 50t-43.5 172v77h175v-117q0 -47 4.5 -59t24.5 -12t27 14.5t7 54.5v80q0 57 -20.5 74.5t-84.5 17.5v104q72 0 86 9q19 12 19 68v40q0 36 -7.5 49t-23.5 13q-17 0 -24.5 -13.5t-7.5 -53.5v-58h-175v61
q0 99 44.5 137t147.5 38q119 0 169 -49q45 -44 45 -141q0 -57 -15 -85t-57 -51q45 -18 59 -47q20 -39 20 -144z" />
    <glyph glyph-name="four" unicode="4" horiz-adv-x="443" 
d="M438 126h-50v-126h-175v126h-208v123l151 469h232v-469h50v-123zM213 249v305l-77 -305h77z" />
    <glyph glyph-name="five" unicode="5" horiz-adv-x="476" 
d="M448 224q0 -139 -53 -192q-46 -46 -152 -46t-157 48q-57 53 -57 174v61h175v-61q0 -72 7 -91.5t30 -19.5q20 0 25.5 18t5.5 93v148q0 64 -35 64q-33 0 -33 -64h-174v362h383v-115h-217v-122q40 49 105 49q76 0 109 -41q38 -47 38 -160v-105z" />
    <glyph glyph-name="six" unicode="6" horiz-adv-x="480" 
d="M451 212q0 -122 -48 -174t-154 -52q-129 0 -178 65q-40 54 -40 181v270q0 114 44 168q50 62 168 62q109 0 158.5 -50.5t49.5 -154.5h-175q0 62 -6 78t-30 16q-20 0 -27 -16t-7 -68v-114q14 28 39 42.5t65 14.5q73 0 107 -42t34 -141v-85zM276 169v134q0 39 -7.5 53
t-27.5 14q-18 0 -26.5 -13t-8.5 -54v-130q0 -47 7 -61.5t28 -14.5q19 0 27 16.5t8 55.5z" />
    <glyph glyph-name="seven" unicode="7" horiz-adv-x="347" 
d="M340 561l-112 -561h-174l124 589h-173v129h335v-157z" />
    <glyph glyph-name="eight" unicode="8" horiz-adv-x="474" 
d="M445 208q0 -120 -41 -168q-46 -54 -165 -54q-117 0 -163.5 51.5t-46.5 179.5q0 84 9 115q14 47 62 75q-65 33 -65 139q0 185 200 185q112 0 160 -49q44 -45 44 -140q0 -60 -13 -84.5t-61 -50.5q47 -23 61 -52q19 -40 19 -147zM267 507v57q0 33 -6.5 45t-25.5 12
q-16 0 -22 -12.5t-6 -44.5v-57q0 -58 32 -58q17 0 22.5 11t5.5 47zM270 171v92q0 40 -6 54t-25 14q-17 0 -26 -14t-9 -54v-93q0 -45 7 -59t28 -14q18 0 24.5 13.5t6.5 60.5z" />
    <glyph glyph-name="nine" unicode="9" horiz-adv-x="480" 
d="M451 216q0 -118 -45 -171q-50 -59 -166 -59q-109 0 -159 49t-50 156h175v-38q0 -32 9 -44t28 -12t26 13.5t7 54.5v130q-24 -58 -103 -58q-67 0 -103 42q-39 46 -39 139v117q0 94 44 142q50 54 159 54q125 0 177 -65q40 -50 40 -140v-310zM276 414v130q0 47 -7 62t-27 15
q-19 0 -27.5 -16t-8.5 -56v-135q0 -41 9 -53.5t26 -12.5q18 0 26.5 14t8.5 52z" />
    <glyph glyph-name="colon" unicode=":" horiz-adv-x="179" 
d="M163 321h-132v146h132v-146zM163 0h-132v146h132v-146z" />
    <glyph glyph-name="semicolon" unicode=";" horiz-adv-x="179" 
d="M163 321h-132v146h132v-146zM156 76q0 -78 -28.5 -115t-88.5 -53v52q24 13 29 40h-29v140h117v-64z" />
    <glyph glyph-name="less" unicode="&#x3c;" horiz-adv-x="473" 
d="M445 144l-417 177v90l417 178v-117l-257 -105l257 -106v-117z" />
    <glyph glyph-name="equal" unicode="=" horiz-adv-x="473" 
d="M445 389h-417v108h417v-108zM445 220h-417v108h417v-108z" />
    <glyph glyph-name="greater" unicode="&#x3e;" horiz-adv-x="473" 
d="M445 322l-417 -178v117l257 106l-257 105v117l417 -177v-90z" />
    <glyph glyph-name="question" unicode="?" horiz-adv-x="466" 
d="M450 394q0 -92 -35 -139.5t-109 -47.5q-64 0 -95 51v-78h-163v198h160q0 -41 28 -41q21 0 27 17.5t6 88.5v119q0 38 -5 52t-21 14q-20 0 -26 -16t-6 -82v-44h-175q0 124 45 183q49 64 160 64q110 0 159.5 -59.5t49.5 -191.5v-88zM211 0h-163v144h163v-144z" />
    <glyph glyph-name="at" unicode="@" horiz-adv-x="688" 
d="M673 414q0 -136 -75 -220q-65 -73 -148 -73q-56 0 -68 52q-27 -28 -49.5 -40t-52.5 -12q-65 0 -104 51t-39 138q0 113 54 198t133 85q60 0 100 -64l7 51h86l-55 -351l-2 -16q0 -17 16 -17q44 0 85 58q48 67 48 160q0 113 -65 183t-176 70q-126 0 -207 -89t-81 -236
q0 -141 78 -225t204 -84q60 0 114.5 20t104.5 63h90q-55 -72 -137 -110.5t-172 -38.5q-150 0 -246 100q-100 104 -100 271q0 173 91 281q96 114 259 114q143 0 227 -92q80 -87 80 -227zM399 435q0 39 -17 64t-45 25q-49 0 -79.5 -73t-30.5 -166q0 -43 17 -71.5t47 -28.5
q50 0 81 81q27 71 27 169z" />
    <glyph glyph-name="A" unicode="A" horiz-adv-x="451" 
d="M456 0h-187l-9 129h-65l-11 -129h-189l93 718h263zM255 256l-28 301l-35 -301h63z" />
    <glyph glyph-name="B" unicode="B" horiz-adv-x="490" 
d="M462 208q0 -135 -25 -165q-36 -43 -190 -43h-211v718h182q130 0 180 -41.5t50 -163.5q0 -62 -18.5 -87t-76.5 -39q67 -16 90 -58q19 -35 19 -121zM279 527q0 45 -10.5 56.5t-49.5 11.5v-160q43 0 51.5 14.5t8.5 77.5zM280 238q0 56 -9 71t-52 15v-201q41 0 51 16.5
t10 98.5z" />
    <glyph glyph-name="C" unicode="C" horiz-adv-x="491" 
d="M462 233q0 -131 -52.5 -189.5t-160.5 -58.5q-119 0 -168.5 56.5t-49.5 191.5v231q0 143 47.5 206t165.5 63q119 0 168.5 -59.5t49.5 -200.5v-68h-182v119q0 53 -6 70t-26 17q-21 0 -27.5 -16t-6.5 -71v-333q0 -54 5.5 -69.5t27.5 -15.5q20 0 26.5 17t6.5 68v96h182v-54z
" />
    <glyph glyph-name="D" unicode="D" horiz-adv-x="490" 
d="M459 213q0 -136 -30 -172q-34 -41 -163 -41h-230v718h137q189 0 237.5 -44.5t48.5 -209.5v-251zM276 227v279q0 51 -2 60q-6 29 -55 29v-472q38 0 47.5 16t9.5 88z" />
    <glyph glyph-name="E" unicode="E" horiz-adv-x="369" 
d="M353 0h-317v718h305v-144h-122v-136h114v-137h-114v-157h134v-144z" />
    <glyph glyph-name="F" unicode="F" horiz-adv-x="353" 
d="M345 574h-126v-136h112v-137h-112v-301h-183v718h309v-144z" />
    <glyph glyph-name="G" unicode="G" horiz-adv-x="489" 
d="M455 0h-115l-17 51q-37 -66 -114 -66q-100 0 -142 72q-36 62 -36 189v213q0 139 38 200q46 74 168 74q123 0 174 -68q44 -58 44 -181v-31h-183v77q0 57 -4.5 69t-24.5 12q-18 0 -23.5 -13.5t-5.5 -67.5v-345q0 -48 5.5 -63.5t24.5 -15.5q20 0 27 16t7 63v91h-37v109h214
v-385z" />
    <glyph glyph-name="H" unicode="H" horiz-adv-x="493" 
d="M456 0h-183v301h-54v-301h-183v718h183v-257h54v257h183v-718z" />
    <glyph glyph-name="I" unicode="I" horiz-adv-x="256" 
d="M219 0h-183v718h183v-718z" />
    <glyph glyph-name="J" unicode="J" horiz-adv-x="294" 
d="M259 238q0 -123 -8 -158q-18 -80 -152 -80h-91v125q50 0 59.5 13t9.5 75v505h182v-480z" />
    <glyph glyph-name="K" unicode="K" horiz-adv-x="476" 
d="M481 0h-189l-73 308v-308h-183v718h183v-279l81 279h171l-105 -324z" />
    <glyph glyph-name="L" unicode="L" horiz-adv-x="337" 
d="M330 0h-294v718h183v-574h111v-144z" />
    <glyph glyph-name="M" unicode="M" horiz-adv-x="636" 
d="M599 0h-159v473l-64 -473h-113l-67 473v-473h-160v718h236l48 -336l41 336h238v-718z" />
    <glyph glyph-name="N" unicode="N" horiz-adv-x="480" 
d="M444 0h-160l-95 326v-326h-153v718h153l102 -324v324h153v-718z" />
    <glyph glyph-name="O" unicode="O" 
d="M453 297q0 -176 -36 -238q-43 -74 -175 -74q-127 0 -172 75q-39 65 -39 237v123q0 171 38 236q45 77 173 77q129 0 174 -77q37 -64 37 -236v-123zM271 198v335q0 50 -5 64t-23 14t-23.5 -13.5t-5.5 -64.5v-335q0 -64 4.5 -78t23.5 -14q18 0 23.5 17t5.5 75z" />
    <glyph glyph-name="P" unicode="P" horiz-adv-x="445" 
d="M429 454q0 -98 -33.5 -131.5t-127.5 -33.5h-49v-289h-183v718h184q132 0 175 -50q34 -40 34 -151v-63zM277 477v59q0 36 -10.5 47.5t-47.5 11.5v-183h13q25 0 35 12.5t10 52.5z" />
    <glyph glyph-name="Q" unicode="Q" 
d="M454 -87h-138q-73 0 -89 12.5t-16 74.5q-91 0 -135.5 59.5t-44.5 191.5v233q0 133 52 191t159 58q106 0 158.5 -58t52.5 -191v-233q0 -134 -22 -170q-16 -27 -90 -45q0 -22 9 -29t40 -7h64v-87zM271 198v335q0 50 -5 64t-23 14t-23.5 -14.5t-5.5 -63.5v-335
q0 -61 5 -76.5t23 -15.5t23.5 15t5.5 77z" />
    <glyph glyph-name="R" unicode="R" horiz-adv-x="478" 
d="M444 0h-170v238q0 58 -8.5 72t-46.5 14v-324h-183v718h169q150 0 201 -53q38 -40 38 -143q0 -84 -19.5 -113t-81.5 -34q59 -16 78 -42q23 -32 23 -114v-219zM274 500v39q0 33 -11.5 44.5t-43.5 11.5v-160q33 0 42 8q13 12 13 57z" />
    <glyph glyph-name="S" unicode="S" horiz-adv-x="459" 
d="M438 183q0 -108 -48 -153t-154 -45q-110 0 -158 50q-51 53 -51 175v47h169v-87q0 -41 6 -52.5t27 -11.5q36 0 36 66q0 73 -63 117q-59 38 -117 77q-64 59 -64 165q0 112 56 161q47 41 142 41q104 0 150 -40q54 -47 54 -164v-29h-170v54q0 36 -5 46.5t-23 10.5
q-33 0 -33 -55q0 -65 63 -104q110 -68 119 -77q64 -65 64 -192z" />
    <glyph glyph-name="T" unicode="T" horiz-adv-x="409" 
d="M404 574h-109v-574h-182v574h-108v144h399v-144z" />
    <glyph glyph-name="U" unicode="U" 
d="M451 238q0 -135 -41 -191q-45 -62 -161 -62q-119 0 -167 60.5t-48 192.5v480h182v-539q0 -46 4.5 -59.5t20.5 -13.5q17 0 22.5 15t5.5 58v539h182v-480z" />
    <glyph glyph-name="V" unicode="V" horiz-adv-x="464" 
d="M470 718l-93 -718h-277l-105 718h192l48 -502l42 502h193z" />
    <glyph glyph-name="W" unicode="W" horiz-adv-x="723" 
d="M723 718l-81 -718h-228l-55 376l-51 -376h-227l-81 718h177l38 -493l48 493h192l39 -493l51 493h178z" />
    <glyph glyph-name="X" unicode="X" horiz-adv-x="428" 
d="M438 0h-169l-55 261l-36 -261h-178l66 400l-66 318h176l38 -196l39 196h153l-64 -318z" />
    <glyph glyph-name="Y" unicode="Y" horiz-adv-x="420" 
d="M425 718l-133 -458v-260h-169v260l-128 458h167l45 -283l50 283h168z" />
    <glyph glyph-name="Z" unicode="Z" horiz-adv-x="352" 
d="M341 0h-336v104l141 470h-124v144h319v-144l-136 -430h136v-144z" />
    <glyph glyph-name="bracketleft" unicode="[" horiz-adv-x="250" 
d="M234 0h-198v718h198v-111h-39v-497h39v-110z" />
    <glyph glyph-name="backslash" unicode="\" horiz-adv-x="351" 
d="M346 -14h-132l-209 745h131z" />
    <glyph glyph-name="bracketright" unicode="]" horiz-adv-x="250" 
d="M214 0h-198v110h39v497h-39v111h198v-718z" />
    <glyph glyph-name="asciicircum" unicode="^" horiz-adv-x="429" 
d="M423 363h-123l-86 217l-85 -217h-124l163 355h97z" />
    <glyph glyph-name="underscore" unicode="_" horiz-adv-x="490" 
d="M495 -113h-500v45h500v-45z" />
    <glyph glyph-name="grave" unicode="`" horiz-adv-x="300" 
d="M230 665h-87l-143 120h154z" />
    <glyph glyph-name="a" unicode="a" horiz-adv-x="447" 
d="M418 0h-170v52q-16 -30 -41 -46.5t-61 -16.5q-54 0 -84 26q-39 34 -39 116v48q0 66 19 89t103 57q74 30 86 42t12 54q0 44 -6 59t-23 15q-16 0 -21 -12t-5 -61v-62h-165v61q0 87 52.5 132.5t145.5 45.5q134 0 172 -74q25 -48 25 -200v-325zM243 159v121
q-38 -28 -46.5 -48.5t-8.5 -65.5t5 -58.5t24 -13.5q17 0 21.5 10.5t4.5 54.5z" />
    <glyph glyph-name="b" unicode="b" horiz-adv-x="461" 
d="M435 164q0 -93 -28.5 -134t-94.5 -41q-61 0 -106 55l-11 -44h-164v718h175v-170q22 25 48 38t58 13q64 0 95 -39q28 -36 28 -101v-295zM259 168v253q0 47 -4.5 60.5t-22.5 13.5q-16 0 -21 -13t-5 -61v-253q0 -49 4.5 -61.5t22.5 -12.5q16 0 21 15t5 59z" />
    <glyph glyph-name="c" unicode="c" horiz-adv-x="439" 
d="M418 242q0 -141 -40 -195q-43 -58 -155 -58q-104 0 -149 50q-48 53 -48 182v167q0 109 48 160t147 51q101 0 149 -54.5t48 -178.5h-165v68q0 36 -5 48.5t-21 12.5q-15 0 -20.5 -11t-5.5 -50v-262q0 -45 7 -61.5t24 -16.5t23.5 16t6.5 62v70h156z" />
    <glyph glyph-name="d" unicode="d" horiz-adv-x="461" 
d="M429 0h-175v43q-49 -54 -111 -54q-65 0 -91 42t-26 125v275q0 98 26.5 133t93.5 35q64 0 108 -48v167h175v-718zM254 152v288q0 33 -5.5 44t-21.5 11t-21 -9.5t-5 -45.5v-288q0 -36 4.5 -47t20.5 -11q28 0 28 58z" />
    <glyph glyph-name="e" unicode="e" horiz-adv-x="454" 
d="M428 202q0 -112 -40 -160q-45 -53 -156 -53q-112 0 -157 45q-49 49 -49 180v171q0 111 49.5 162.5t144.5 51.5q110 0 159 -53.5t49 -183.5v-78h-227v-128q0 -40 4.5 -51t22.5 -11q20 0 27 13.5t7 48.5v90h166v-44zM252 379v63q0 27 -5 40t-19 13q-17 0 -22 -10.5
t-5 -42.5v-63h51z" />
    <glyph glyph-name="f" unicode="f" horiz-adv-x="256" 
d="M254 481h-41v-481h-175v481h-36v93h36v40q0 65 42 87q32 17 110 17h64v-91q-51 0 -62 -5t-11 -29v-19h73v-93z" />
    <glyph glyph-name="g" unicode="g" horiz-adv-x="460" 
d="M429 75q0 -87 -44 -128q-51 -48 -172 -48q-90 0 -134 29q-53 35 -53 114h170q0 -39 28 -39q19 0 25.5 12t6.5 50v44q-42 -42 -99 -42q-69 0 -100 37t-31 124v213q0 83 29 120.5t90 37.5q65 0 108 -55l13 44h163v-513zM253 234v198q0 39 -4.5 51t-19.5 12t-21.5 -12.5
t-6.5 -50.5v-198q0 -38 4.5 -50t20.5 -12q18 0 22.5 19t4.5 43z" />
    <glyph glyph-name="h" unicode="h" horiz-adv-x="465" 
d="M436 0h-175v420q0 47 -5 61t-22 14q-16 0 -22 -15t-6 -60v-420h-175v718h175v-162q23 21 48.5 32t56.5 11q65 0 95 -39t30 -117v-443z" />
    <glyph glyph-name="i" unicode="i" horiz-adv-x="243" 
d="M211 624h-180v94h180v-94zM211 0h-180v588h180v-588z" />
    <glyph glyph-name="j" unicode="j" horiz-adv-x="248" 
d="M217 624h-181v94h181v-94zM217 73q0 -81 -22 -112q-31 -43 -120 -43h-78v94q29 0 34 8t5 47v521h181v-515z" />
    <glyph glyph-name="k" unicode="k" horiz-adv-x="424" 
d="M429 0h-168l-55 256v-256h-175v718h175v-302l55 172h147l-71 -234z" />
    <glyph glyph-name="l" unicode="l" horiz-adv-x="243" 
d="M211 0h-180v718h180v-718z" />
    <glyph glyph-name="m" unicode="m" horiz-adv-x="684" 
d="M655 0h-170v408q0 44 -2 65.5t-26 21.5q-17 0 -23 -18t-6 -69v-408h-170v408q0 42 -3 64.5t-24 22.5q-19 0 -24.5 -16t-5.5 -71v-408h-170v588h170v-56q19 33 47 50t66 17q70 0 110 -67q23 34 49 50.5t62 16.5q69 0 96 -46q24 -40 24 -135v-418z" />
    <glyph glyph-name="n" unicode="n" horiz-adv-x="464" 
d="M435 0h-175v427q0 42 -4.5 55t-21.5 13q-16 0 -22 -16t-6 -52v-427h-175v588h175v-54q40 65 110 65q54 0 82 -29q37 -39 37 -138v-432z" />
    <glyph glyph-name="o" unicode="o" horiz-adv-x="454" 
d="M427 218q0 -120 -48.5 -174.5t-150.5 -54.5q-113 0 -157.5 50.5t-44.5 178.5v151q0 116 42 170q47 60 153 60q109 0 159 -57q47 -53 47 -160v-164zM252 160v266q0 47 -3.5 58t-21.5 11q-16 0 -21 -12t-5 -57v-266q0 -42 4.5 -54t22.5 -12q20 0 22 14t2 52z" />
    <glyph glyph-name="p" unicode="p" horiz-adv-x="461" 
d="M434 158q0 -98 -35 -138q-27 -31 -82 -31q-64 0 -111 62v-135h-175v672h175v-52q48 63 113 63q47 0 76 -27q39 -36 39 -117v-297zM259 145v282q0 43 -3.5 55.5t-21.5 12.5q-17 0 -22.5 -14t-5.5 -54v-282q0 -51 28 -51q16 0 20.5 11t4.5 40z" />
    <glyph glyph-name="q" unicode="q" horiz-adv-x="460" 
d="M428 -84h-175v131q-24 -36 -44.5 -47t-55.5 -11q-60 0 -89 30q-38 39 -38 138v289q0 153 116 153q65 0 111 -61v50h175v-672zM253 154v274q0 37 -6 52t-21 15q-14 0 -19.5 -12.5t-5.5 -54.5v-272q0 -38 5 -50t21 -12t21 10.5t5 49.5z" />
    <glyph glyph-name="r" unicode="r" horiz-adv-x="318" 
d="M310 392q-62 0 -86 -27q-18 -20 -18 -63v-302h-175v588h175l-7 -77q40 88 111 88v-207z" />
    <glyph glyph-name="s" unicode="s" horiz-adv-x="418" 
d="M402 174q0 -103 -43 -144t-139 -41q-94 0 -141 35q-56 41 -56 134v49h155v-38q0 -50 5 -62.5t24 -12.5q20 0 26.5 10.5t6.5 58.5q0 33 -111 94t-111 168q0 100 48 140q41 34 133 34q100 0 145 -39t45 -116v-44h-155v42q0 30 -3 38q-6 15 -25 15q-17 0 -23 -10.5t-6 -39.5
q0 -51 56 -81t110 -59q59 -46 59 -131z" />
    <glyph glyph-name="t" unicode="t" horiz-adv-x="270" 
d="M270 0h-72q-106 0 -136 34q-22 25 -22 108v339h-37v93h37v93h176v-93h47v-93h-47v-335q0 -38 6.5 -44.5t47.5 -6.5v-95z" />
    <glyph glyph-name="u" unicode="u" horiz-adv-x="464" 
d="M432 0h-178l3 49q-35 -60 -106 -60q-70 0 -98 44q-24 38 -24 128v427h175v-420q0 -45 2 -59.5t24 -14.5q19 0 23 12t4 62v420h175v-588z" />
    <glyph glyph-name="v" unicode="v" horiz-adv-x="388" 
d="M393 588l-82 -588h-228l-88 588h156l49 -429l37 429h156z" />
    <glyph glyph-name="w" unicode="w" horiz-adv-x="594" 
d="M597 588l-70 -588h-190l-36 284l-39 -284h-191l-74 588h151l38 -336l39 336h145l36 -336l40 336h151z" />
    <glyph glyph-name="x" unicode="x" horiz-adv-x="385" 
d="M392 0h-170l-38 200l-38 -200h-146l75 307l-75 281h146l38 -204l38 204h156l-70 -281z" />
    <glyph glyph-name="y" unicode="y" horiz-adv-x="398" 
d="M398 588l-60 -502q-14 -114 -62 -146q-33 -22 -133 -22h-106v94q43 0 53.5 3t10.5 20q0 11 -1 18q-6 28 -9 43l-96 492h159l57 -397l28 397h159z" />
    <glyph glyph-name="z" unicode="z" horiz-adv-x="311" 
d="M304 0h-299v123l132 347h-118v118h285v-130l-129 -340h129v-118z" />
    <glyph glyph-name="braceleft" unicode="{" horiz-adv-x="328" 
d="M312 612q-56 0 -72 -13t-16 -53q0 -136 -15.5 -178t-66.5 -76q44 -27 60 -63q21 -48 21 -156q0 -72 12.5 -86.5t75.5 -14.5v-106h-22q-101 0 -140 39t-39 149q0 118 -17 148t-77 36v107q50 0 69 26q25 34 25 129q0 138 40 181q34 37 139 37h23v-106z" />
    <glyph glyph-name="bar" unicode="|" horiz-adv-x="240" 
d="M167 -117h-94v835h94v-835z" />
    <glyph glyph-name="braceright" unicode="}" horiz-adv-x="328" 
d="M312 238q-59 -5 -75 -33q-19 -33 -19 -151q0 -109 -38.5 -148.5t-140.5 -39.5h-22v106q63 0 75.5 14.5t12.5 86.5q0 107 21 155q16 37 60 64q-51 34 -65 71q-17 47 -17 183q0 40 -16.5 53t-71.5 13v106h23q105 0 139 -36q40 -43 40 -182q0 -95 24 -128q20 -27 70 -27
v-107z" />
    <glyph glyph-name="asciitilde" unicode="~" horiz-adv-x="466" 
d="M441 349q-67 -58 -123 -58q-29 0 -72 18q-94 39 -100 39q-47 0 -121 -72v123q63 57 125 57q32 0 97 -28.5t77 -28.5q21 0 40 11q24 14 77 61v-122z" />
    <glyph glyph-name="Adieresis" unicode="&#xc4;" horiz-adv-x="451" 
d="M456 0h-187l-9 129h-65l-11 -129h-189l93 718h263zM255 256l-28 301l-35 -301h63zM372 756h-113v115h113v-115zM183 756h-113v115h113v-115z" />
    <glyph glyph-name="Aring" unicode="&#xc5;" horiz-adv-x="451" 
d="M456 0h-187l-9 129h-65l-11 -129h-189l93 718h61q-15 23 -15 52q0 39 26.5 66.5t64.5 27.5q37 0 64 -27t27 -67q0 -29 -16 -52h51zM260 769q0 14 -10 25t-26 11q-13 0 -24 -10t-11 -26q0 -15 10 -26t25 -11t25.5 10.5t10.5 26.5zM255 256l-28 301l-35 -301h63z" />
    <glyph glyph-name="Ccedilla" unicode="&#xc7;" horiz-adv-x="491" 
d="M462 233q0 -126 -48.5 -186.5t-144.5 -60.5v-16q23 0 40.5 -16t17.5 -43q0 -38 -24 -60t-63 -22q-67 0 -86 70h64q6 -19 22 -19q25 0 25 27q0 29 -36 29h-11v50q-100 0 -143.5 59.5t-43.5 187.5v231q0 143 47.5 206t165.5 63q119 0 168.5 -59.5t49.5 -200.5v-68h-182v119
q0 53 -6 70t-26 17q-21 0 -27.5 -16t-6.5 -71v-333q0 -54 5.5 -69.5t27.5 -15.5q20 0 26.5 17t6.5 68v96h182v-54z" />
    <glyph glyph-name="Eacute" unicode="&#xc9;" horiz-adv-x="369" 
d="M353 0h-317v718h305v-144h-122v-136h114v-137h-114v-157h134v-144zM348 870l-143 -120h-88l77 120h154z" />
    <glyph glyph-name="Ntilde" unicode="&#xd1;" horiz-adv-x="480" 
d="M444 0h-160l-95 326v-326h-153v718h153l102 -324v324h153v-718zM420 826q-18 -39 -48 -61q-26 -19 -53 -19q-31 0 -82.5 20.5t-61.5 20.5q-30 0 -53 -45l-68 47q48 86 107 86q31 0 81.5 -18.5t59.5 -18.5q36 0 48 39z" />
    <glyph glyph-name="Odieresis" unicode="&#xd6;" 
d="M453 297q0 -176 -36 -238q-43 -74 -175 -74q-127 0 -172 75q-39 65 -39 237v123q0 171 38 236q45 77 173 77q129 0 174 -77q37 -64 37 -236v-123zM271 198v335q0 50 -5 64t-23 14t-23.5 -13.5t-5.5 -64.5v-335q0 -64 4.5 -78t23.5 -14q18 0 23.5 17t5.5 75zM388 749h-113
v115h113v-115zM199 749h-113v115h113v-115z" />
    <glyph glyph-name="Udieresis" unicode="&#xdc;" 
d="M451 238q0 -135 -41 -191q-45 -62 -161 -62q-119 0 -167 60.5t-48 192.5v480h182v-539q0 -46 4.5 -59.5t20.5 -13.5q17 0 22.5 15t5.5 58v539h182v-480zM392 753h-113v115h113v-115zM203 753h-113v115h113v-115z" />
    <glyph glyph-name="aacute" unicode="&#xe1;" horiz-adv-x="447" 
d="M418 0h-170v52q-16 -30 -41 -46.5t-61 -16.5q-54 0 -84 26q-39 34 -39 116v48q0 66 19 89t103 57q74 30 86 42t12 54q0 44 -6 59t-23 15q-16 0 -21 -12t-5 -61v-62h-165v61q0 87 52.5 132.5t145.5 45.5q134 0 172 -74q25 -48 25 -200v-325zM243 159v121
q-38 -28 -46.5 -48.5t-8.5 -65.5t5 -58.5t24 -13.5q17 0 21.5 10.5t4.5 54.5zM402 764l-143 -120h-88l77 120h154z" />
    <glyph glyph-name="agrave" unicode="&#xe0;" horiz-adv-x="447" 
d="M418 0h-170v52q-16 -30 -41 -46.5t-61 -16.5q-54 0 -84 26q-39 34 -39 116v48q0 66 19 89t103 57q74 30 86 42t12 54q0 44 -6 59t-23 15q-16 0 -21 -12t-5 -61v-62h-165v61q0 87 52.5 132.5t145.5 45.5q134 0 172 -74q25 -48 25 -200v-325zM243 159v121
q-38 -28 -46.5 -48.5t-8.5 -65.5t5 -58.5t24 -13.5q17 0 21.5 10.5t4.5 54.5zM276 642h-87l-143 120h154z" />
    <glyph glyph-name="acircumflex" unicode="&#xe2;" horiz-adv-x="447" 
d="M418 0h-170v52q-16 -30 -41 -46.5t-61 -16.5q-54 0 -84 26q-39 34 -39 116v48q0 66 19 89t103 57q74 30 86 42t12 54q0 44 -6 59t-23 15q-16 0 -21 -12t-5 -61v-62h-165v61q0 87 52.5 132.5t145.5 45.5q134 0 172 -74q25 -48 25 -200v-325zM243 159v121
q-38 -28 -46.5 -48.5t-8.5 -65.5t5 -58.5t24 -13.5q17 0 21.5 10.5t4.5 54.5zM391 642h-117l-48 58l-51 -58h-122l112 125h122z" />
    <glyph glyph-name="adieresis" unicode="&#xe4;" horiz-adv-x="447" 
d="M418 0h-170v52q-16 -30 -41 -46.5t-61 -16.5q-54 0 -84 26q-39 34 -39 116v48q0 66 19 89t103 57q74 30 86 42t12 54q0 44 -6 59t-23 15q-16 0 -21 -12t-5 -61v-62h-165v61q0 87 52.5 132.5t145.5 45.5q134 0 172 -74q25 -48 25 -200v-325zM243 159v121
q-38 -28 -46.5 -48.5t-8.5 -65.5t5 -58.5t24 -13.5q17 0 21.5 10.5t4.5 54.5zM375 644h-113v115h113v-115zM186 644h-113v115h113v-115z" />
    <glyph glyph-name="atilde" unicode="&#xe3;" horiz-adv-x="447" 
d="M418 0h-170v52q-16 -30 -41 -46.5t-61 -16.5q-54 0 -84 26q-39 34 -39 116v48q0 66 19 89t103 57q74 30 86 42t12 54q0 44 -6 59t-23 15q-16 0 -21 -12t-5 -61v-62h-165v61q0 87 52.5 132.5t145.5 45.5q134 0 172 -74q25 -48 25 -200v-325zM243 159v121
q-38 -28 -46.5 -48.5t-8.5 -65.5t5 -58.5t24 -13.5q17 0 21.5 10.5t4.5 54.5zM398 718q-18 -39 -48 -61q-26 -19 -53 -19q-31 0 -82.5 20.5t-61.5 20.5q-30 0 -53 -45l-68 47q48 86 107 86q31 0 81.5 -18.5t59.5 -18.5q36 0 48 39z" />
    <glyph glyph-name="aring" unicode="&#xe5;" horiz-adv-x="447" 
d="M418 0h-170v52q-16 -30 -41 -46.5t-61 -16.5q-54 0 -84 26q-39 34 -39 116v48q0 66 19 89t103 57q74 30 86 42t12 54q0 44 -6 59t-23 15q-16 0 -21 -12t-5 -61v-62h-165v61q0 87 52.5 132.5t145.5 45.5q134 0 172 -74q25 -48 25 -200v-325zM243 159v121
q-38 -28 -46.5 -48.5t-8.5 -65.5t5 -58.5t24 -13.5q17 0 21.5 10.5t4.5 54.5zM305 705q0 -37 -26 -65t-65 -28q-38 0 -64.5 26.5t-26.5 66.5q0 39 26.5 66.5t64.5 27.5q37 0 64 -27t27 -67zM249 704q0 14 -10 25t-26 11q-14 0 -24.5 -9.5t-10.5 -26.5q0 -15 10 -26t25 -11
t25.5 10.5t10.5 26.5z" />
    <glyph glyph-name="ccedilla" unicode="&#xe7;" horiz-adv-x="439" 
d="M418 242q0 -135 -35 -191q-38 -61 -135 -61v-20q23 0 40.5 -16t17.5 -43q0 -38 -24 -60t-63 -22q-67 0 -86 70h64q6 -19 22 -19q25 0 25 27q0 29 -36 29h-11v54q-88 0 -129.5 55t-41.5 176v167q0 109 48 160t147 51q101 0 149 -54.5t48 -178.5h-165v68q0 36 -5 48.5
t-21 12.5q-15 0 -20.5 -11t-5.5 -50v-278q0 -62 31 -62q17 0 23.5 16t6.5 62v70h156z" />
    <glyph glyph-name="eacute" unicode="&#xe9;" horiz-adv-x="454" 
d="M428 202q0 -112 -40 -160q-45 -53 -156 -53q-112 0 -157 45q-49 49 -49 180v171q0 111 49.5 162.5t144.5 51.5q110 0 159 -53.5t49 -183.5v-78h-227v-128q0 -40 4.5 -51t22.5 -11q20 0 27 13.5t7 48.5v90h166v-44zM252 379v63q0 27 -5 40t-19 13q-17 0 -22 -10.5
t-5 -42.5v-63h51zM406 766l-143 -120h-88l77 120h154z" />
    <glyph glyph-name="egrave" unicode="&#xe8;" horiz-adv-x="454" 
d="M428 202q0 -112 -40 -160q-45 -53 -156 -53q-112 0 -157 45q-49 49 -49 180v171q0 111 49.5 162.5t144.5 51.5q110 0 159 -53.5t49 -183.5v-78h-227v-128q0 -40 4.5 -51t22.5 -11q20 0 27 13.5t7 48.5v90h166v-44zM252 379v63q0 27 -5 40t-19 13q-17 0 -22 -10.5
t-5 -42.5v-63h51zM278 646h-87l-143 120h154z" />
    <glyph glyph-name="ecircumflex" unicode="&#xea;" horiz-adv-x="454" 
d="M428 202q0 -112 -40 -160q-45 -53 -156 -53q-112 0 -157 45q-49 49 -49 180v171q0 111 49.5 162.5t144.5 51.5q110 0 159 -53.5t49 -183.5v-78h-227v-128q0 -40 4.5 -51t22.5 -11q20 0 27 13.5t7 48.5v90h166v-44zM252 379v63q0 27 -5 40t-19 13q-17 0 -22 -10.5
t-5 -42.5v-63h51zM398 638h-117l-48 58l-51 -58h-122l112 125h122z" />
    <glyph glyph-name="edieresis" unicode="&#xeb;" horiz-adv-x="454" 
d="M428 202q0 -112 -40 -160q-45 -53 -156 -53q-112 0 -157 45q-49 49 -49 180v171q0 111 49.5 162.5t144.5 51.5q110 0 159 -53.5t49 -183.5v-78h-227v-128q0 -40 4.5 -51t22.5 -11q20 0 27 13.5t7 48.5v90h166v-44zM252 379v63q0 27 -5 40t-19 13q-17 0 -22 -10.5
t-5 -42.5v-63h51zM368 644h-113v115h113v-115zM179 644h-113v115h113v-115z" />
    <glyph glyph-name="iacute" unicode="&#xed;" horiz-adv-x="243" 
d="M211 0h-180v588h180v-588zM266 764l-143 -120h-88l77 120h154z" />
    <glyph glyph-name="igrave" unicode="&#xec;" horiz-adv-x="243" 
d="M212 0h-180v588h180v-588zM205 644h-87l-143 120h154z" />
    <glyph glyph-name="icircumflex" unicode="&#xee;" horiz-adv-x="243" 
d="M211 0h-180v588h180v-588zM285 640h-117l-48 58l-51 -58h-122l112 125h122z" />
    <glyph glyph-name="idieresis" unicode="&#xef;" horiz-adv-x="243" 
d="M211 0h-180v588h180v-588zM275 644h-113v115h113v-115zM86 644h-113v115h113v-115z" />
    <glyph glyph-name="ntilde" unicode="&#xf1;" horiz-adv-x="464" 
d="M435 0h-175v427q0 42 -4.5 55t-21.5 13q-16 0 -22 -16t-6 -52v-427h-175v588h175v-54q40 65 110 65q54 0 82 -29q37 -39 37 -138v-432zM419 718q-18 -39 -48 -61q-26 -19 -53 -19q-31 0 -82.5 20.5t-61.5 20.5q-30 0 -53 -45l-68 47q48 86 107 86q31 0 81.5 -18.5
t59.5 -18.5q36 0 48 39z" />
    <glyph glyph-name="oacute" unicode="&#xf3;" horiz-adv-x="454" 
d="M427 218q0 -120 -48.5 -174.5t-150.5 -54.5q-113 0 -157.5 50.5t-44.5 178.5v151q0 116 42 170q47 60 153 60q109 0 159 -57q47 -53 47 -160v-164zM252 160v266q0 47 -3.5 58t-21.5 11q-16 0 -21 -12t-5 -57v-266q0 -42 4.5 -54t22.5 -12q20 0 22 14t2 52zM402 764
l-143 -120h-88l77 120h154z" />
    <glyph glyph-name="ograve" unicode="&#xf2;" horiz-adv-x="454" 
d="M427 218q0 -120 -48.5 -174.5t-150.5 -54.5q-113 0 -157.5 50.5t-44.5 178.5v151q0 116 42 170q47 60 153 60q109 0 159 -57q47 -53 47 -160v-164zM252 160v266q0 47 -3.5 58t-21.5 11q-16 0 -21 -12t-5 -57v-266q0 -42 4.5 -54t22.5 -12q20 0 22 14t2 52zM274 642h-87
l-143 120h154z" />
    <glyph glyph-name="ocircumflex" unicode="&#xf4;" horiz-adv-x="454" 
d="M427 218q0 -120 -48.5 -174.5t-150.5 -54.5q-113 0 -157.5 50.5t-44.5 178.5v151q0 116 42 170q47 60 153 60q109 0 159 -57q47 -53 47 -160v-164zM252 160v266q0 47 -3.5 58t-21.5 11q-16 0 -21 -12t-5 -57v-266q0 -42 4.5 -54t22.5 -12q20 0 22 14t2 52zM388 638h-117
l-48 58l-51 -58h-122l112 125h122z" />
    <glyph glyph-name="odieresis" unicode="&#xf6;" horiz-adv-x="454" 
d="M427 218q0 -120 -48.5 -174.5t-150.5 -54.5q-113 0 -157.5 50.5t-44.5 178.5v151q0 116 42 170q47 60 153 60q109 0 159 -57q47 -53 47 -160v-164zM252 160v266q0 47 -3.5 58t-21.5 11q-16 0 -21 -12t-5 -57v-266q0 -42 4.5 -54t22.5 -12q20 0 22 14t2 52zM384 644h-113
v115h113v-115zM195 644h-113v115h113v-115z" />
    <glyph glyph-name="otilde" unicode="&#xf5;" horiz-adv-x="454" 
d="M427 218q0 -120 -48.5 -174.5t-150.5 -54.5q-113 0 -157.5 50.5t-44.5 178.5v151q0 116 42 170q47 60 153 60q109 0 159 -57q47 -53 47 -160v-164zM252 160v266q0 47 -3.5 58t-21.5 11q-16 0 -21 -12t-5 -57v-266q0 -42 4.5 -54t22.5 -12q20 0 22 14t2 52zM413 714
q-18 -39 -48 -61q-26 -19 -53 -19q-31 0 -82.5 20.5t-61.5 20.5q-30 0 -53 -45l-68 47q48 86 107 86q31 0 81.5 -18.5t59.5 -18.5q36 0 48 39z" />
    <glyph glyph-name="uacute" unicode="&#xfa;" horiz-adv-x="464" 
d="M432 0h-178l3 49q-35 -60 -106 -60q-70 0 -98 44q-24 38 -24 128v427h175v-420q0 -45 2 -59.5t24 -14.5q19 0 23 12t4 62v420h175v-588zM385 762l-143 -120h-88l77 120h154z" />
    <glyph glyph-name="ugrave" unicode="&#xf9;" horiz-adv-x="464" 
d="M432 0h-178l3 49q-35 -60 -106 -60q-70 0 -98 44q-24 38 -24 128v427h175v-420q0 -45 2 -59.5t24 -14.5q19 0 23 12t4 62v420h175v-588zM305 644h-87l-143 120h154z" />
    <glyph glyph-name="ucircumflex" unicode="&#xfb;" horiz-adv-x="464" 
d="M432 0h-178l3 49q-35 -60 -106 -60q-70 0 -98 44q-24 38 -24 128v427h175v-420q0 -45 2 -59.5t24 -14.5q19 0 23 12t4 62v420h175v-588zM396 640h-117l-48 58l-51 -58h-122l112 125h122z" />
    <glyph glyph-name="udieresis" unicode="&#xfc;" horiz-adv-x="464" 
d="M432 0h-178l3 49q-35 -60 -106 -60q-70 0 -98 44q-24 38 -24 128v427h175v-420q0 -45 2 -59.5t24 -14.5q19 0 23 12t4 62v420h175v-588zM384 642h-113v115h113v-115zM195 642h-113v115h113v-115z" />
    <glyph glyph-name="dagger" unicode="&#x2020;" horiz-adv-x="500" 
d="M475 341h-129v-425h-192v425h-129v169h129v208h192v-208h129v-169z" />
    <glyph glyph-name="degree" unicode="&#xb0;" horiz-adv-x="308" 
d="M292 586q0 -58 -40.5 -99.5t-97.5 -41.5q-58 0 -98 43t-40 98q0 62 39.5 101.5t98.5 39.5q56 0 97 -41t41 -100zM220 586q0 28 -19 48t-47 20q-29 0 -47.5 -19.5t-18.5 -46.5q0 -30 19 -50t47 -20q27 0 46.5 19.5t19.5 48.5z" />
    <glyph glyph-name="cent" unicode="&#xa2;" horiz-adv-x="459" 
d="M435 254q0 -101 -35 -157q-39 -61 -128 -80v-73h-80v73q-97 20 -131.5 69.5t-34.5 164.5v142q0 133 33.5 184.5t132.5 76.5v60h80v-60q74 -16 115 -60q47 -51 47 -134v-51h-174v66q0 39 -1 46q-4 26 -29 26q-16 0 -22.5 -13.5t-6.5 -58.5v-276q0 -48 5.5 -61.5
t23.5 -13.5q21 0 29 17t8 64v79h168v-30z" />
    <glyph glyph-name="sterling" unicode="&#xa3;" horiz-adv-x="475" 
d="M454 144q0 -89 -29.5 -123.5t-100.5 -34.5q-17 0 -86 15t-101 15t-58.5 -7t-47.5 -23v105q29 17 46 72.5t17 102.5l-1 20h-62v122h43q-36 71 -36 136q0 88 53.5 137.5t144.5 49.5t146 -49t55 -137v-33q-3 -17 -4 -25h-157v95q0 27 -7 41t-27 14q-18 0 -29 -14t-11 -35
q0 -16 13 -69.5t27 -110.5h110v-122h-100q0 -121 -84 -181q5 0 20 2t23 2q13 0 26 -2t32 -4q19 0 28.5 11t9.5 49v38h147v-57z" />
    <glyph glyph-name="section" unicode="&#xa7;" horiz-adv-x="429" 
d="M414 323q0 -81 -94 -126q34 -37 54 -74t20 -69q0 -63 -46 -107q-50 -48 -134 -48q-76 0 -119 40q-46 43 -46 126h139q0 -57 34 -57q27 0 27 29q0 28 -60 73q-102 76 -112 85q-61 57 -61 113q0 72 93 128q-36 33 -54.5 68t-18.5 73q0 65 44 108q49 48 133 48q76 0 118 -38
q49 -44 49 -131h-138q0 32 -8 44t-28 12q-26 0 -26 -27q0 -25 60 -70q98 -74 113 -88q61 -58 61 -112zM279 281q0 25 -114 104q-15 -17 -15 -33q0 -17 40 -49l74 -56q15 15 15 34z" />
    <glyph glyph-name="bullet" unicode="&#x2022;" horiz-adv-x="400" 
d="M332 362q0 -54 -37 -91t-91 -37t-91 37t-37 91t37 91t91 37t91 -37t37 -91z" />
    <glyph glyph-name="paragraph" unicode="&#xb6;" horiz-adv-x="511" 
d="M506 602h-49v-700h-103v700h-62v-700h-106v451q-170 20 -170 179q0 88 50 135q54 51 161 51h279v-116z" />
    <glyph glyph-name="germandbls" unicode="&#xdf;" horiz-adv-x="488" 
d="M459 204q0 -113 -56 -163q-46 -41 -130 -41h-43v109h20q25 0 29.5 10t4.5 60v176q0 31 -5.5 40.5t-28.5 14.5v109q17 0 22 8t5 33q0 68 -36 68q-19 0 -27 -14t-8 -60v-554h-175v509q0 115 34 162q45 62 167 62q105 0 161.5 -43t56.5 -120q0 -70 -59 -117q36 -15 50 -45
q18 -38 18 -128v-76z" />
    <glyph glyph-name="registered" unicode="&#xae;" horiz-adv-x="695" 
d="M679 339q0 -140 -96.5 -239.5t-235.5 -99.5q-140 0 -235.5 99t-95.5 240q0 142 100 243q96 97 223 97q146 0 243 -100t97 -240zM615 339q0 119 -86 200q-79 74 -174 74q-120 0 -197 -79t-77 -195q0 -111 78 -192t189 -81q109 0 188 80t79 193zM508 158h-88l-30 58
q-30 57 -51.5 73.5t-66.5 16.5v-148h-71v361h167q59 0 90 -30q28 -27 28 -72q0 -83 -94 -101q23 -10 34.5 -22.5t40.5 -63.5zM411 413q0 48 -73 48h-66v-98h59q45 0 62.5 11t17.5 39z" />
    <glyph glyph-name="copyright" unicode="&#xa9;" horiz-adv-x="695" 
d="M679 339q0 -140 -97.5 -239.5t-234.5 -99.5t-234 100t-97 239q0 142 98 241t232 99q147 0 242 -102q91 -98 91 -238zM614 339q0 115 -84 196q-80 77 -184 77q-116 0 -190.5 -79.5t-74.5 -193.5q0 -111 78.5 -191.5t187.5 -80.5q111 0 189 79t78 193zM498 265
q-36 -115 -147 -115q-75 0 -120.5 51.5t-45.5 136.5q0 87 45.5 139.5t119.5 52.5q108 0 148 -110l-70 -17q-22 61 -77 61q-41 0 -65.5 -34.5t-24.5 -91.5q0 -125 90 -125q53 0 77 76z" />
    <glyph glyph-name="trademark" unicode="&#x2122;" horiz-adv-x="694" 
d="M674 355h-69v289l-76 -289h-65l-77 289v-289h-67v363h112l64 -250l65 250h113v-363zM293 655h-106v-300h-72v300h-110v63h288v-63z" />
    <glyph glyph-name="acute" unicode="&#xb4;" horiz-adv-x="300" 
d="M296 785l-143 -120h-88l77 120h154z" />
    <glyph glyph-name="dieresis" unicode="&#xa8;" horiz-adv-x="300" 
d="M299 685h-113v115h113v-115zM110 685h-113v115h113v-115z" />
    <glyph glyph-name="AE" unicode="&#xc6;" horiz-adv-x="633" 
d="M617 0h-314v129h-105l-29 -129h-174l184 718h429v-144h-122v-136h115v-137h-115v-157h131v-144zM303 256v327l-77 -327h77z" />
    <glyph glyph-name="Oslash" unicode="&#xd8;" 
d="M508 679l-64 -87q5 -31 7 -70t2 -102v-123q0 -176 -36 -238q-43 -74 -175 -74q-72 0 -114 21t-65 67l-47 -65l-40 31l63 83q-3 26 -4 46q-4 60 -4 129v123q0 171 38 236q45 77 173 77q71 0 115.5 -22.5t63.5 -64.5l47 64zM271 435v98q0 50 -5 64t-23 14t-23.5 -13.5
t-5.5 -64.5v-173zM271 198v158l-57 -78v-80q0 -64 4.5 -78t23.5 -14q18 0 23.5 17t5.5 75z" />
    <glyph glyph-name="plusminus" unicode="&#xb1;" horiz-adv-x="473" 
d="M445 398h-156v-157h-106v157h-155v108h155v160h106v-160h156v-108zM445 79h-417v108h417v-108z" />
    <glyph glyph-name="yen" unicode="&#xa5;" horiz-adv-x="420" 
d="M425 718l-82 -283h75v-76h-97l-29 -99h126v-76h-126v-184h-169v184h-122v76h122l-28 99h-94v76h73l-79 283h167l45 -283l50 283h168z" />
    <glyph glyph-name="mu" unicode="&#xb5;" horiz-adv-x="418" 
d="M386 0h-132v55q-26 -64 -82 -64v-171h-141v768h141v-424q0 -63 33 -63q42 0 42 103v384h139v-588z" />
    <glyph glyph-name="ordfeminine" unicode="&#xaa;" horiz-adv-x="288" 
d="M272 370h-110v31q-11 -19 -27 -29.5t-39 -10.5q-35 0 -55 17q-25 21 -25 71v29q0 40 13.5 56t65 35.5t58 24.5t6.5 30t-4.5 31t-16.5 6q-16 0 -16 -21v-36h-106v20q0 50 34 78t94 28q81 0 108 -44q20 -33 20 -120v-196zM159 466v70q-25 -17 -30.5 -28t-5.5 -38
q0 -25 4 -31t17 -6q15 0 15 33z" />
    <glyph glyph-name="ordmasculine" unicode="&#xba;" horiz-adv-x="292" 
d="M276 489q0 -60 -27 -91q-32 -37 -103 -37q-72 0 -101 29t-29 111v95q0 65 34.5 99.5t95.5 34.5q70 0 100 -32t30 -102v-107zM162 463v160v11q0 18 -2.5 22.5t-13.5 4.5t-13.5 -5.5t-2.5 -32.5v-160q0 -22 3 -28t12 -6q11 0 14 5.5t3 28.5z" />
    <glyph glyph-name="ae" unicode="&#xe6;" horiz-adv-x="668" 
d="M643 202q0 -106 -51 -159.5t-147 -53.5q-76 0 -127 33q-17 11 -37 34q-15 -29 -53 -48t-82 -19q-54 0 -84 26q-39 34 -39 116v48q0 65 19.5 86.5t103.5 54.5q65 25 76.5 38.5t11.5 63.5q0 43 -4.5 58t-15.5 15q-16 0 -21 -12t-5 -61v-62h-165v40q0 108 53 156
q48 43 145 43q32 0 66 -11q20 -7 49 -21q10 11 39.5 21.5t57.5 10.5q110 0 159 -53.5t49 -183.5v-78h-227v-128q0 -40 4.5 -51t22.5 -11q20 0 28 12.5t8 49.5v90h166v-44zM467 379v63q0 26 -5.5 39.5t-20.5 13.5q-17 0 -22 -10.5t-5 -42.5v-63h53zM239 159v118
q-39 -29 -48 -48.5t-9 -63.5q0 -42 8 -56.5t27 -14.5q12 0 17 14.5t5 50.5z" />
    <glyph glyph-name="oslash" unicode="&#xf8;" horiz-adv-x="454" 
d="M427 228q0 -136 -55 -192q-46 -47 -144 -47q-48 0 -84.5 10t-60.5 28l-13 -21l-34 23l19 30q-16 27 -22.5 58.5t-6.5 100.5v164q0 104 42 157q48 60 153 60q47 0 82.5 -10.5t62.5 -34.5l18 28l34 -23l-23 -36q17 -23 24.5 -51.5t7.5 -89.5v-154zM252 370v56q0 47 -3.5 58
t-21.5 11q-16 0 -21 -12t-5 -57v-136zM252 155v138l-51 -80v-53q0 -37 2.5 -51.5t23.5 -14.5q15 0 20 10.5t5 50.5z" />
    <glyph glyph-name="questiondown" unicode="&#xbf;" horiz-adv-x="466" 
d="M438 555h-163v144h163v-144zM450 213q0 -124 -45 -183q-49 -64 -160 -64q-110 0 -159.5 59.5t-49.5 191.5v88q0 92 35 139.5t109 47.5q64 0 95 -51v78h163v-198h-160q0 41 -28 41q-21 0 -27 -17.5t-6 -88.5v-119q0 -38 5 -52t21 -14q20 0 26 16t6 82v44h175z" />
    <glyph glyph-name="exclamdown" unicode="&#xa1;" horiz-adv-x="240" 
d="M194 558h-164v143h164v-143zM208 -16h-192l28 540h135z" />
    <glyph glyph-name="logicalnot" unicode="&#xac;" horiz-adv-x="1000" 
d="M852 236q0 -26 -26 -86q-18 -41 -42 -86q-22 -36 -32 -46q-16 -15 -30 -15q-15 0 -31.5 11t-16.5 26q0 9 5.5 18.5t14.5 17.5q15 -16 17 -18q10 -9 23 -9q32 0 59 57q23 49 23 87q0 21 -12 27.5t-34 6.5q-38 0 -39 -21t-8 -26l-7 14q1 5 1 17q0 29 4 37q10 19 46 19
q39 0 53 -3q32 -7 32 -28zM967 108q0 -57 -33 -85t-93 -28q-19 0 -34 4q-24 7 -24 21q0 16 17 16q18 0 26 -14q2 -8 11 -13q3 -2 12 -5q44 0 69.5 29.5t25.5 70.5q0 90 -18 127q-27 55 -106 65q-21 2 -91 10q-37 4 -56 4q-26 0 -36 -1q-44 -8 -80 -13q-84 -15 -182 -102.5
t-105 -157.5q9 -14 13.5 -27t4.5 -27q0 -4 -1 -12.5t-9 -8.5t-14 13q-10 21 -10 41v5q-22 16 -34 28q-23 23 -25 37.5t-2.5 26t0.5 15.5q-30 -24 -65 -48q-48 -32 -68 -32q-19 0 -21 16q0 21 11 53q8 23 19 44l25 34l10 13q-33 0 -40 35q24 -3 50.5 10t48.5 34q2 -1 4 -1
q3 -7 3 -12q0 -30 -20 -46q-17 -11 -33 -21q-18 -24 -27 -37q-17 -24 -17 -43q0 -12 6.5 -31t14.5 -19q18 0 70 36q18 13 37 27q10 27 16 42q11 28 22 40q9 12 10 13q7 7 15 7q12 0 12 -12q0 -15 -16 -32q-11 -11 -29 -24q-3 -6 -8 -27t-5 -27q0 -11 16 -35q13 -20 25 -32
q16 76 108 159q88 79 149.5 91.5t102 18.5t78.5 6q32 0 64.5 -3t81 -11.5t80.5 -47.5q44 -54 44 -157zM646 15q-1 -7 -9.5 -10t-18.5 -1q-24 8 -20 25q1 10 17 10q4 0 10 -2q24 -7 21 -22zM637 121q0 -24 -18 -48q-12 -16 -37 -36q-59 -44 -129 -44q-36 0 -61 13
q-32 17 -32 50q0 21 14.5 37.5t36.5 23.5l2 -3q-16 -8 -19 -10q-15 -11 -18 -29q0 -37 58 -48q26 -5 51 -5q63 0 107 34q10 7 16 16t6 21q0 17 -14 22t-34 5l-56 -3q-31 0 -49 11q-23 14 -23 44q0 41 37.5 65.5t82.5 24.5q16 0 23 -1.5t15 -10.5q11 4 16 -7.5t8 -14.5l2 -4
q-2 -6 -11.5 -15t-11.5 -15q-2 -7 -8 -2.5t-11 9.5q-15 3 -15 9q0 4 8 14t8 17q0 14 -26 14q-33 0 -60 -15q-34 -19 -34 -49q0 -17 17 -25q11 -5 32 -5l50 2q34 0 49 -5q28 -9 28 -37zM359 13q-3 -12 -21 -12q-6 0 -13.5 2t-12.5 10t-3 14q3 10 19 10q6 0 9 -1q26 -9 22 -23
z" />
    <glyph glyph-name="florin" unicode="&#x192;" horiz-adv-x="393" 
d="M393 731l-18 -94q-25 0 -31 -5t-12 -35l-29 -152h64l-21 -108h-64l-57 -298q-16 -85 -47.5 -112.5t-119.5 -27.5h-79l19 94q23 0 29 5t11 32l60 307h-60l20 108h62l26 138q17 88 40 114q30 34 115 34h92z" />
    <glyph glyph-name="guillemotleft" unicode="&#xab;" horiz-adv-x="329" 
d="M314 55h-103l-37 253l37 241h103l-37 -241zM155 55h-103l-36 253l36 241h103l-37 -241z" />
    <glyph glyph-name="guillemotright" unicode="&#xbb;" horiz-adv-x="329" 
d="M314 308l-37 -253h-103l37 253l-37 241h103zM155 308l-37 -253h-102l36 253l-36 241h102z" />
    <glyph glyph-name="ellipsis" unicode="&#x2026;" horiz-adv-x="1000" 
d="M875 0h-132v146h132v-146zM551 0h-132v146h132v-146zM228 0h-132v146h132v-146z" />
    <glyph glyph-name="nonbreakingspace" unicode="&#xa0;" horiz-adv-x="240" 
 />
    <glyph glyph-name="Agrave" unicode="&#xc0;" horiz-adv-x="451" 
d="M456 0h-187l-9 129h-65l-11 -129h-189l93 718h263zM255 256l-28 301l-35 -301h63zM294 752h-87l-143 120h154z" />
    <glyph glyph-name="Atilde" unicode="&#xc3;" horiz-adv-x="451" 
d="M456 0h-187l-9 129h-65l-11 -129h-189l93 718h263zM255 256l-28 301l-35 -301h63zM409 826q-18 -39 -48 -61q-26 -19 -53 -19q-31 0 -82.5 20.5t-61.5 20.5q-30 0 -53 -45l-68 47q48 86 107 86q31 0 81.5 -18.5t59.5 -18.5q36 0 48 39z" />
    <glyph glyph-name="Otilde" unicode="&#xd5;" 
d="M453 297q0 -176 -36 -238q-43 -74 -175 -74q-127 0 -172 75q-39 65 -39 237v123q0 171 38 236q45 77 173 77q129 0 174 -77q37 -64 37 -236v-123zM271 198v335q0 50 -5 64t-23 14t-23.5 -13.5t-5.5 -64.5v-335q0 -64 4.5 -78t23.5 -14q18 0 23.5 17t5.5 75zM423 829
q-18 -39 -48 -61q-26 -19 -53 -19q-31 0 -82.5 20.5t-61.5 20.5q-30 0 -53 -45l-68 47q48 86 107 86q31 0 81.5 -18.5t59.5 -18.5q36 0 48 39z" />
    <glyph glyph-name="OE" unicode="&#x152;" horiz-adv-x="611" 
d="M595 0h-274q-64 -8 -82 -8q-91 0 -143 42q-65 53 -65 170v304q0 115 56 168q52 49 155 49q38 0 80 -7h258v-144h-123v-136h117v-137h-117v-157h138v-144zM275 192v359q0 53 -32 53q-17 0 -23 -11t-6 -42v-359q0 -47 4.5 -62.5t24.5 -15.5q18 0 25 18t7 60z" />
    <glyph glyph-name="oe" unicode="&#x153;" horiz-adv-x="679" 
d="M653 202q0 -105 -53 -159t-143 -54q-37 0 -66 7.5t-51 21.5q-23 -14 -50.5 -21.5t-61.5 -7.5q-113 0 -157.5 50.5t-44.5 178.5v151q0 116 42 170q47 60 153 60q43 0 72.5 -9.5t46.5 -27.5q23 19 46 28t59 9q110 0 159 -53.5t49 -183.5v-78h-227v-128q0 -40 4.5 -51
t22.5 -11q20 0 27 13.5t7 48.5v90h166v-44zM477 379v63q0 27 -5 40t-19 13q-17 0 -22 -10.5t-5 -42.5v-63h51zM252 160v266q0 47 -3.5 58t-21.5 11q-16 0 -21 -12t-5 -57v-266q0 -37 2.5 -51.5t23.5 -14.5q15 0 20 13t5 53z" />
    <glyph glyph-name="endash" unicode="&#x2013;" horiz-adv-x="500" 
d="M479 239h-464v110h464v-110z" />
    <glyph glyph-name="emdash" unicode="&#x2014;" horiz-adv-x="800" 
d="M782 239h-767v110h767v-110z" />
    <glyph glyph-name="quotedblleft" unicode="&#x201c;" horiz-adv-x="306" 
d="M290 485h-118v65q0 76 32 117q29 37 86 51v-52q-26 -15 -29 -40h29v-141zM133 485h-117v65q0 77 30 116q26 33 87 52v-52q-24 -14 -29 -40h29v-141z" />
    <glyph glyph-name="quotedblright" unicode="&#x201d;" horiz-adv-x="306" 
d="M290 653q0 -72 -28 -111.5t-90 -56.5v52q26 15 29 40h-29v141h118v-65zM133 653q0 -71 -26 -110.5t-91 -57.5v52q24 14 29 40h-29v141h117v-65z" />
    <glyph glyph-name="quoteleft" unicode="&#x2018;" horiz-adv-x="149" 
d="M133 485h-117v65q0 74 26.5 111.5t90.5 56.5v-52q-24 -14 -29 -40h29v-141z" />
    <glyph glyph-name="quoteright" unicode="&#x2019;" horiz-adv-x="149" 
d="M133 653q0 -76 -28.5 -114t-88.5 -54v52q24 14 29 40h-29v141h117v-65z" />
    <glyph glyph-name="divide" unicode="&#xf7;" horiz-adv-x="473" 
d="M295 507q0 -24 -17.5 -42.5t-42.5 -18.5q-26 0 -43 18t-17 43t17.5 43.5t42.5 18.5q24 0 42 -18t18 -44zM445 306h-417v105h417v-105zM296 212q0 -25 -17 -43t-43 -18t-43.5 17.5t-17.5 42.5q0 27 17 45t44 18q25 0 42.5 -16.5t17.5 -45.5z" />
    <glyph glyph-name="ydieresis" unicode="&#xff;" horiz-adv-x="398" 
d="M398 588l-60 -502q-14 -114 -62 -146q-33 -22 -133 -22h-106v94q43 0 53.5 3t10.5 20q0 11 -1 18q-6 28 -9 43l-96 492h159l57 -397l28 397h159zM346 642h-113v115h113v-115zM157 642h-113v115h113v-115z" />
    <glyph glyph-name="Ydieresis" unicode="&#x178;" horiz-adv-x="420" 
d="M425 718l-133 -458v-260h-169v260l-128 458h167l45 -283l50 283h168zM280 778h-48v51h48v-51zM199 778h-49v51h49v-51z" />
    <glyph glyph-name="fraction" unicode="&#x2215;" horiz-adv-x="111" 
d="M226 731l-274 -745h-67l275 745h66z" />
    <glyph glyph-name="currency" unicode="&#xa4;" horiz-adv-x="486" 
d="M470 127l-60 -63l-57 57q-24 -15 -53 -23.5t-58 -8.5q-56 0 -108 32l-56 -57l-62 63l57 57q-32 53 -32 113q0 58 32 110l-57 59l60 63l58 -59q26 15 54 24t55 9q51 0 110 -33l57 59l60 -63l-56 -59q31 -52 31 -110q0 -60 -31 -113zM359 296q0 48 -34 83t-82 35
q-49 0 -82.5 -34.5t-33.5 -80.5q0 -51 33.5 -86.5t82.5 -35.5q48 0 82 34t34 85z" />
    <glyph glyph-name="guilsinglleft" unicode="&#x2039;" horiz-adv-x="175" 
d="M159 46h-106l-37 262l37 249h106l-37 -249z" />
    <glyph glyph-name="guilsinglright" unicode="&#x203a;" horiz-adv-x="175" 
d="M159 308l-37 -262h-106l37 262l-37 249h106z" />
    <glyph glyph-name="fi" unicode="&#xf001;" horiz-adv-x="497" 
d="M466 624h-181v94h181v-94zM466 0h-181v588h181v-588zM254 481h-41v-481h-175v481h-36v93h36v40q0 65 42 87q32 17 110 17h64v-91q-51 0 -62 -5t-11 -29v-19h73v-93z" />
    <glyph glyph-name="fl" unicode="&#xf002;" horiz-adv-x="496" 
d="M464 0h-180v718h180v-718zM254 481h-41v-481h-175v481h-36v93h36v40q0 60 35.5 82t116.5 22h64v-91q-50 0 -61.5 -5.5t-11.5 -28.5v-19h73v-93z" />
    <glyph glyph-name="daggerdbl" unicode="&#x2021;" horiz-adv-x="500" 
d="M471 82h-129v-166h-192v166h-129v169h129v132h-129v168h129v167h192v-167h129v-168h-129v-132h129v-169z" />
    <glyph glyph-name="periodcentered" unicode="&#xb7;" horiz-adv-x="195" 
d="M163 285h-132v146h132v-146z" />
    <glyph glyph-name="quotesinglbase" unicode="&#x201a;" horiz-adv-x="149" 
d="M133 76q0 -73 -26 -111.5t-91 -56.5v52q24 13 29 40h-29v140h117v-64z" />
    <glyph glyph-name="quotedblbase" unicode="&#x201e;" horiz-adv-x="306" 
d="M290 76q0 -72 -27 -111.5t-91 -56.5v52q26 14 29 40h-29v140h118v-64zM133 76q0 -71 -27.5 -112t-89.5 -56v52q24 13 29 40h-29v140h117v-64z" />
    <glyph glyph-name="perthousand" unicode="&#x2030;" horiz-adv-x="909" 
d="M893 119q0 -71 -27 -99t-97 -28q-72 0 -103 30t-31 97v130q0 75 27.5 105.5t98.5 30.5t101.5 -30.5t30.5 -105.5v-130zM274 466q0 -69 -27 -98t-98 -29t-102 30t-31 97v129q0 76 28 106t98 30q71 0 101.5 -32.5t30.5 -103.5v-129zM478 731l-274 -745h-67l275 745h66z
M599 119q0 -71 -27 -99t-97 -28q-72 0 -103 30t-31 97v130q0 75 27.5 105.5t98.5 30.5t101.5 -30.5t30.5 -105.5v-130zM782 96v184q0 28 -3 35t-15 7t-15 -6.5t-3 -35.5v-181q0 -31 3 -37t15 -6q13 0 15.5 6t2.5 34zM163 443v184v11q0 19 -3 24.5t-15 5.5t-15.5 -7t-3.5 -34
v-181q0 -31 3.5 -37.5t15.5 -6.5q10 0 14 7.5t4 33.5zM488 96v184q0 28 -3 35t-15 7t-15 -6.5t-3 -35.5v-181q0 -31 3 -37t15 -6q13 0 15.5 6t2.5 34z" />
    <glyph glyph-name="Acircumflex" unicode="&#xc2;" horiz-adv-x="451" 
d="M456 0h-187l-9 129h-65l-11 -129h-189l93 718h263zM255 256l-28 301l-35 -301h63zM393 748h-117l-48 58l-51 -58h-122l112 125h122z" />
    <glyph glyph-name="Ecircumflex" unicode="&#xca;" horiz-adv-x="369" 
d="M353 0h-317v718h305v-144h-122v-136h114v-137h-114v-157h134v-144zM355 747h-117l-48 58l-51 -58h-122l112 125h122z" />
    <glyph glyph-name="Aacute" unicode="&#xc1;" horiz-adv-x="451" 
d="M456 0h-187l-9 129h-65l-11 -129h-189l93 718h263zM255 256l-28 301l-35 -301h63zM367 872l-143 -120h-88l77 120h154z" />
    <glyph glyph-name="Edieresis" unicode="&#xcb;" horiz-adv-x="369" 
d="M353 0h-317v718h305v-144h-122v-136h114v-137h-114v-157h134v-144zM343 753h-113v115h113v-115zM154 753h-113v115h113v-115z" />
    <glyph glyph-name="Egrave" unicode="&#xc8;" horiz-adv-x="369" 
d="M353 0h-317v718h305v-144h-122v-136h114v-137h-114v-157h134v-144zM283 749h-87l-143 120h154z" />
    <glyph glyph-name="Iacute" unicode="&#xcd;" horiz-adv-x="256" 
d="M219 0h-183v718h183v-718zM270 870l-143 -120h-88l77 120h154z" />
    <glyph glyph-name="Icircumflex" unicode="&#xce;" horiz-adv-x="256" 
d="M219 0h-183v718h183v-718zM291 746h-117l-48 58l-51 -58h-122l112 125h122z" />
    <glyph glyph-name="Idieresis" unicode="&#xcf;" horiz-adv-x="256" 
d="M219 0h-183v718h183v-718zM276 752h-113v115h113v-115zM87 752h-113v115h113v-115z" />
    <glyph glyph-name="Igrave" unicode="&#xcc;" horiz-adv-x="256" 
d="M220 0h-183v718h183v-718zM214 750h-87l-143 120h154z" />
    <glyph glyph-name="Oacute" unicode="&#xd3;" 
d="M453 297q0 -176 -36 -238q-43 -74 -175 -74q-127 0 -172 75q-39 65 -39 237v123q0 171 38 236q45 77 173 77q129 0 174 -77q37 -64 37 -236v-123zM271 198v335q0 50 -5 64t-23 14t-23.5 -13.5t-5.5 -64.5v-335q0 -64 4.5 -78t23.5 -14q18 0 23.5 17t5.5 75zM413 871
l-143 -120h-88l77 120h154z" />
    <glyph glyph-name="Ocircumflex" unicode="&#xd4;" 
d="M453 297q0 -176 -36 -238q-43 -74 -175 -74q-127 0 -172 75q-39 65 -39 237v123q0 171 38 236q45 77 173 77q129 0 174 -77q37 -64 37 -236v-123zM271 198v335q0 50 -5 64t-23 14t-23.5 -13.5t-5.5 -64.5v-335q0 -64 4.5 -78t23.5 -14q18 0 23.5 17t5.5 75zM407 754h-117
l-48 58l-51 -58h-122l112 125h122z" />
    <glyph glyph-name="Ograve" unicode="&#xd2;" 
d="M453 297q0 -176 -36 -238q-43 -74 -175 -74q-127 0 -172 75q-39 65 -39 237v123q0 171 38 236q45 77 173 77q129 0 174 -77q37 -64 37 -236v-123zM271 198v335q0 50 -5 64t-23 14t-23.5 -13.5t-5.5 -64.5v-335q0 -64 4.5 -78t23.5 -14q18 0 23.5 17t5.5 75zM304 753h-87
l-143 120h154z" />
    <glyph glyph-name="Uacute" unicode="&#xda;" 
d="M451 238q0 -135 -41 -191q-45 -62 -161 -62q-119 0 -167 60.5t-48 192.5v480h182v-539q0 -46 4.5 -59.5t20.5 -13.5q17 0 22.5 15t5.5 58v539h182v-480zM391 871l-143 -120h-88l77 120h154z" />
    <glyph glyph-name="Ucircumflex" unicode="&#xdb;" 
d="M451 238q0 -135 -41 -191q-45 -62 -161 -62q-119 0 -167 60.5t-48 192.5v480h182v-539q0 -46 4.5 -59.5t20.5 -13.5q17 0 22.5 15t5.5 58v539h182v-480zM410 755h-117l-48 58l-51 -58h-122l112 125h122z" />
    <glyph glyph-name="Ugrave" unicode="&#xd9;" 
d="M451 238q0 -135 -41 -191q-45 -62 -161 -62q-119 0 -167 60.5t-48 192.5v480h182v-539q0 -46 4.5 -59.5t20.5 -13.5q17 0 22.5 15t5.5 58v539h182v-480zM337 750h-87l-143 120h154z" />
    <glyph glyph-name="dotlessi" unicode="&#x131;" horiz-adv-x="243" 
d="M211 0h-180v588h180v-588z" />
    <glyph glyph-name="circumflex" unicode="&#x2c6;" horiz-adv-x="300" 
d="M317 675h-117l-48 58l-51 -58h-122l112 125h122z" />
    <glyph glyph-name="tilde" unicode="&#x2dc;" horiz-adv-x="300" 
d="M331 759q-18 -39 -48 -61q-26 -19 -53 -19q-31 0 -82.5 20.5t-61.5 20.5q-30 0 -53 -45l-68 47q48 86 107 86q31 0 81.5 -18.5t59.5 -18.5q36 0 48 39z" />
    <glyph glyph-name="macron" unicode="&#xaf;" horiz-adv-x="300" 
d="M266 712h-230v84h230v-84z" />
    <glyph glyph-name="breve" unicode="&#x2d8;" horiz-adv-x="300" 
d="M271 799q0 -60 -33 -96t-90 -36t-90 36t-33 96h74q0 -61 49 -61t49 61h74z" />
    <glyph glyph-name="dotaccent" unicode="&#x2d9;" horiz-adv-x="300" 
d="M204 665h-113v115h113v-115z" />
    <glyph glyph-name="ring" unicode="&#x2da;" horiz-adv-x="300" 
d="M239 758q0 -37 -26 -65t-65 -28q-38 0 -64.5 26.5t-26.5 66.5q0 39 26.5 66.5t64.5 27.5q37 0 64 -27t27 -67zM183 757q0 14 -10 25t-26 11q-14 0 -24.5 -9.5t-10.5 -26.5q0 -15 10 -26t25 -11t25.5 10.5t10.5 26.5z" />
    <glyph glyph-name="cedilla" unicode="&#xb8;" horiz-adv-x="300" 
d="M222 -89q0 -38 -24 -60t-63 -22q-67 0 -86 70h64q6 -19 22 -19q25 0 25 27q0 29 -36 29h-11v69h51v-35q23 0 40.5 -16t17.5 -43z" />
    <glyph glyph-name="hungarumlaut" unicode="&#x2ba;" horiz-adv-x="300" 
d="M348 803l-104 -138h-65l51 138h118zM179 803l-104 -138h-65l52 138h117z" />
    <glyph glyph-name="ogonek" unicode="&#x2db;" horiz-adv-x="300" 
d="M229 -121q-38 -19 -75 -19q-38 0 -62 18t-24 51q0 38 46 80h63q-46 -45 -46 -68q0 -29 31 -29q24 0 49 11z" />
    <glyph glyph-name="caron" unicode="&#x2c7;" horiz-adv-x="300" 
d="M317 790l-104 -125h-122l-112 125h122l51 -58l48 58h117z" />
    <glyph glyph-name="Lslash" unicode="&#x141;" horiz-adv-x="337" 
d="M330 0h-294v243l-46 -20v131l46 20v344h183v-264l61 26v-132l-61 -26v-178h111v-144z" />
    <glyph glyph-name="lslash" unicode="&#x142;" horiz-adv-x="243" 
d="M251 330l-40 -17v-313h-180v234l-35 -15v135l35 15v349h180v-270l40 17v-135z" />
    <glyph glyph-name="Scaron" unicode="&#x160;" horiz-adv-x="459" 
d="M438 183q0 -108 -48 -153t-154 -45q-110 0 -158 50q-51 53 -51 175v47h169v-87q0 -41 6 -52.5t27 -11.5q36 0 36 66q0 73 -63 117q-59 38 -117 77q-64 59 -64 165q0 112 56 161q47 41 142 41q104 0 150 -40q54 -47 54 -164v-29h-170v54q0 36 -5 46.5t-23 10.5
q-33 0 -33 -55q0 -65 63 -104q110 -68 119 -77q64 -65 64 -192zM378 873l-104 -125h-122l-112 125h122l51 -58l48 58h117z" />
    <glyph glyph-name="scaron" unicode="&#x161;" horiz-adv-x="418" 
d="M402 174q0 -103 -43 -144t-139 -41q-94 0 -141 35q-56 41 -56 134v49h155v-38q0 -50 5 -62.5t24 -12.5q20 0 26.5 10.5t6.5 58.5q0 33 -111 94t-111 168q0 100 48 140q41 34 133 34q100 0 145 -39t45 -116v-44h-155v42q0 30 -3 38q-6 15 -25 15q-17 0 -23 -10.5t-6 -39.5
q0 -51 56 -81t110 -59q59 -46 59 -131zM365 762l-104 -125h-122l-112 125h122l51 -58l48 58h117z" />
    <glyph glyph-name="Zcaron" unicode="&#x17d;" horiz-adv-x="352" 
d="M341 0h-336v104l141 470h-124v144h319v-144l-136 -430h136v-144zM347 870l-104 -125h-122l-112 125h122l51 -58l48 58h117z" />
    <glyph glyph-name="zcaron" unicode="&#x17e;" horiz-adv-x="311" 
d="M304 0h-299v123l132 347h-118v118h285v-130l-129 -340h129v-118zM327 760l-104 -125h-122l-112 125h122l51 -58l48 58h117z" />
    <glyph glyph-name="brokenbar" unicode="&#xa6;" horiz-adv-x="240" 
d="M167 356h-94v362h94v-362zM167 -117h-94v361h94v-361z" />
    <glyph glyph-name="Eth" unicode="&#xd0;" horiz-adv-x="496" 
d="M464 213q0 -136 -30 -172q-34 -41 -163 -41h-230v359h-35v76h35v283h137q189 0 237.5 -44.5t48.5 -209.5v-251zM281 227v279q0 51 -2 60q-6 29 -55 29v-160h29v-76h-29v-236q38 0 47.5 16t9.5 88z" />
    <glyph glyph-name="eth" unicode="&#xf0;" horiz-adv-x="454" 
d="M428 210q0 -113 -48 -167t-156 -54t-153 49t-45 172v138q0 114 39.5 169t114.5 55q42 0 73 -25q-9 51 -32 90l-84 -23l-13 40l73 21l-37 43h106l23 -18l69 18l13 -40l-49 -14q49 -63 71 -115q35 -85 35 -206v-133zM253 160v242q0 42 -4.5 54t-21.5 12q-15 0 -20.5 -13.5
t-5.5 -46.5v-252q0 -37 5 -49.5t21 -12.5q14 0 20 13.5t6 52.5z" />
    <glyph glyph-name="Yacute" unicode="&#xdd;" horiz-adv-x="420" 
d="M425 718l-133 -458v-260h-169v260l-128 458h167l45 -283l50 283h168zM357 872l-143 -120h-88l77 120h154z" />
    <glyph glyph-name="yacute" unicode="&#xfd;" horiz-adv-x="398" 
d="M398 588l-60 -502q-14 -114 -62 -146q-33 -22 -133 -22h-106v94q43 0 53.5 3t10.5 20q0 11 -1 18q-6 28 -9 43l-96 492h159l57 -397l28 397h159zM375 760l-143 -120h-88l77 120h154z" />
    <glyph glyph-name="Thorn" unicode="&#xde;" horiz-adv-x="445" 
d="M429 321q0 -98 -34 -132t-127 -34h-49v-155h-183v718h183v-133q132 0 175 -48q35 -39 35 -153v-63zM277 344v59q0 36 -11 47t-47 11v-183h13q25 0 35 13t10 53z" />
    <glyph glyph-name="thorn" unicode="&#xfe;" horiz-adv-x="461" 
d="M434 158q0 -98 -35 -138q-27 -31 -82 -31q-64 0 -111 62v-135h-175v802h175v-182q48 63 113 63q47 0 76 -27q39 -36 39 -117v-297zM259 145v282q0 43 -3.5 55.5t-21.5 12.5q-17 0 -22.5 -14t-5.5 -54v-282q0 -51 28 -51q16 0 20.5 11t4.5 40z" />
    <glyph glyph-name="minus" unicode="&#xad;" horiz-adv-x="473" 
d="M445 304h-417v108h417v-108z" />
    <glyph glyph-name="multiply" unicode="&#xd7;" horiz-adv-x="473" 
d="M441 497l-130 -133l129 -131l-74 -77l-129 132l-129 -131l-75 76l129 131l-130 133l75 77l130 -133l129 133z" />
    <glyph glyph-name="onesuperior" unicode="&#xb9;" horiz-adv-x="217" 
d="M190 346h-105v214q0 31 -9 39t-46 8h-18v42q77 14 116 56h62v-359z" />
    <glyph glyph-name="twosuperior" unicode="&#xb2;" horiz-adv-x="282" 
d="M264 621q0 -33 -18 -65q-22 -39 -107 -146h116v-61h-232v51q94 132 121 177q21 35 21 55q0 29 -24 29q-20 0 -22 -11.5t-2 -39.5v-23h-94v23q0 48 23 74q28 32 91 32q60 0 93.5 -26t33.5 -69z" />
    <glyph glyph-name="threesuperior" unicode="&#xb3;" horiz-adv-x="289" 
d="M264 458q0 -62 -29 -89t-94 -27q-71 0 -98 26t-27 85v40h105v-60q0 -22 3 -28t15 -6t16 6.5t4 26.5v40q0 29 -12.5 37.5t-50.5 8.5v52q43 0 53 5.5t10 34.5v20q0 31 -18 31q-11 0 -15.5 -7t-4.5 -28v-29h-105v32q0 48 27 67t89 19q71 0 99.5 -23t28.5 -72
q0 -28 -8.5 -41.5t-34.5 -26.5q27 -9 35 -23q12 -20 12 -71z" />
    <glyph glyph-name="onehalf" unicode="&#xbd;" horiz-adv-x="544" 
d="M560 273q0 -33 -18 -65q-22 -39 -107 -146h116v-61h-232v51q95 133 121 176q21 35 21 55q0 29 -24 29q-20 0 -22 -11.5t-2 -39.5v-23h-94v23q0 49 23 75q28 31 91 31q60 0 93.5 -25.5t33.5 -68.5zM177 349h-105v213q0 32 -9.5 39.5t-45.5 7.5h-18v42q77 14 116 57h62
v-359zM426 731l-274 -745h-67l275 745h66z" />
    <glyph glyph-name="onequarter" unicode="&#xbc;" horiz-adv-x="544" 
d="M523 63h-30v-63h-105v63h-125v62l91 234h139v-234h30v-62zM388 125v152l-46 -152h46zM177 349h-105v213q0 32 -9.5 39.5t-45.5 7.5h-18v42q77 14 116 57h62v-359zM426 731l-274 -745h-67l275 745h66z" />
    <glyph glyph-name="threequarters" unicode="&#xbe;" horiz-adv-x="612" 
d="M258 450q0 -61 -29 -88t-94 -27q-72 0 -98 25t-26 86v39h105v-59q0 -24 2.5 -29.5t14.5 -5.5t16 7t4 27v40q0 29 -12.5 37.5t-50.5 8.5v52q38 0 43 1q20 4 20 38v20q0 31 -18 31q-11 0 -15 -6t-4 -28v-29h-105v31q0 49 27 68t88 19q72 0 100 -23t28 -72q0 -29 -8.5 -42.5
t-34.5 -25.5q27 -9 35 -23q12 -20 12 -72zM593 63h-30v-63h-105v63h-125v62l91 234h139v-234h30v-62zM458 125v152l-46 -152h46zM496 731l-274 -745h-67l275 745h66z" />
  </font>
</defs>
</svg>
